<svg xmlns="http://www.w3.org/2000/svg" width="180.925" height="80.722" viewBox="0 0 180.925 80.722"><defs><style>.a,.b{isolation:isolate;}.b{opacity:0;mix-blend-mode:multiply;}.c{fill:#1d1d1b;}</style></defs><g class="a" transform="translate(0 0.004)"><g transform="translate(0 -0.004)"><path d="M119.458,122.613c-5.034,0-8.973-1.473-11.718-4.317s-4.155-6.63-4.341-11.349c-.034-.933-.049-2.377-.049-4.42s0-3.556.049-4.508c.187-4.734,1.645-8.55,4.341-11.359s6.684-4.317,11.718-4.317a18.711,18.711,0,0,1,8.526,1.793,13.432,13.432,0,0,1,7.607,11.487v.128a3.33,3.33,0,0,1-1.193,2.588,3.59,3.59,0,0,1-2.343.85H129.6a3.6,3.6,0,0,1-2.357-.81,3.9,3.9,0,0,1-1.247-2.122v-.064a6.124,6.124,0,0,0-2.023-3.821,7.914,7.914,0,0,0-4.513-1.08c-3.055,0-6.208.85-6.438,7.16-.029.85-.044,2.185-.044,3.988s0,3.177.044,4.086c.226,6.267,3.384,7.111,6.438,7.111a7.949,7.949,0,0,0,4.5-1.09A6.018,6.018,0,0,0,126,108.774v-.059a3.9,3.9,0,0,1,1.247-2.122,3.61,3.61,0,0,1,2.362-.815h2.456a3.6,3.6,0,0,1,2.343.845,3.354,3.354,0,0,1,1.193,2.593v.128a13.446,13.446,0,0,1-7.627,11.467A18.711,18.711,0,0,1,119.458,122.613Z" transform="translate(-52.594 -41.898)"/><path d="M115.058,119.142q-3.438-3.565-3.659-9.748c-.034-.884-.049-2.328-.049-4.322s0-3.507.049-4.42q.241-6.188,3.659-9.748T125,87.343a16.246,16.246,0,0,1,7.416,1.547,10.976,10.976,0,0,1,6.286,9.4.894.894,0,0,1-.319.712,1.164,1.164,0,0,1-.761.27h-2.456a1.193,1.193,0,0,1-.786-.246,1.562,1.562,0,0,1-.442-.835q-.84-3.786-3.02-5.3a10.177,10.177,0,0,0-5.893-1.522q-8.545,0-8.889,9.527c-.034.884-.049,2.239-.049,4.076s0,3.222.049,4.174q.339,9.473,8.889,9.478a10.213,10.213,0,0,0,5.893-1.522,8.238,8.238,0,0,0,3.045-5.255,1.542,1.542,0,0,1,.442-.835,1.169,1.169,0,0,1,.786-.246h2.456a1.139,1.139,0,0,1,.761.27.889.889,0,0,1,.319.712,10.976,10.976,0,0,1-6.286,9.4,16.246,16.246,0,0,1-7.416,1.547Q118.471,122.7,115.058,119.142Z" transform="translate(-56.665 -44.442)"/><path d="M189.009,122.641c-4.911,0-8.786-1.365-11.575-4.052s-4.282-6.679-4.42-11.841q-.052-1.473-.054-4.243c0-1.847,0-3.227.054-4.214.147-5.088,1.684-9.066,4.567-11.787s6.713-4.115,11.438-4.115,8.575,1.385,11.423,4.12,4.391,6.718,4.538,11.816c.069,1.964.1,3.32.1,4.2s-.029,2.235-.1,4.253c-.147,5.152-1.63,9.13-4.42,11.821S193.911,122.641,189.009,122.641Zm0-31.333a6.069,6.069,0,0,0-4.562,1.68c-1.125,1.13-1.743,3.045-1.822,5.662-.029.913-.049,2.205-.049,3.855s0,2.907.049,3.845c.079,2.627.683,4.523,1.8,5.648a6.088,6.088,0,0,0,4.587,1.655A6.006,6.006,0,0,0,193.552,112c1.1-1.115,1.739-3.035,1.847-5.662.064-1.92.093-3.217.093-3.831s-.029-1.964-.093-3.845c-.108-2.618-.732-4.533-1.856-5.682A5.942,5.942,0,0,0,189.009,91.309Z" transform="translate(-88.018 -41.926)"/><path d="M181.672,119.346q-3.482-3.364-3.683-10.141c-.029-.982-.049-2.377-.049-4.174s0-3.177.049-4.125q.2-6.684,3.806-10.117t9.748-3.438q6.144,0,9.724,3.438t3.782,10.117c.069,1.9.1,3.271.1,4.125s-.029,2.21-.1,4.174q-.192,6.777-3.659,10.141t-9.847,3.364Q185.164,122.71,181.672,119.346Zm16.157-3.094q2.357-2.387,2.554-7.293c.069-1.964.1-3.276.1-3.929s-.029-2.033-.1-3.929q-.192-4.911-2.554-7.317a9.446,9.446,0,0,0-12.6,0q-2.382,2.406-2.529,7.317c-.029.948-.049,2.259-.049,3.929s0,2.947.049,3.929q.147,4.911,2.51,7.293a8.507,8.507,0,0,0,6.33,2.382A8.4,8.4,0,0,0,197.83,116.252Z" transform="translate(-90.552 -44.45)"/><path d="M246.675,122.638a3.482,3.482,0,0,1-2.593-1.115,3.58,3.58,0,0,1-.943-2.456V86.984a3.629,3.629,0,0,1,.948-2.524,3.477,3.477,0,0,1,2.588-1.11h11.1c5.6,0,9.788,1.36,12.45,4.037s4.027,6.6,4.1,11.688c.034.953.049,2.269.049,3.87s0,2.947-.049,3.958a20.949,20.949,0,0,1-1.739,8.57,11.433,11.433,0,0,1-5.554,5.52,20.842,20.842,0,0,1-9.012,1.665Zm11.1-8.987a10.666,10.666,0,0,0,4.42-.727,3.4,3.4,0,0,0,1.748-1.773,12.666,12.666,0,0,0,.8-4.592c.064-1.964.093-3.163.093-3.615s-.029-1.68-.093-3.551c-.054-2.647-.6-4.508-1.635-5.564s-2.922-1.542-5.589-1.542h-4.862v21.363Z" transform="translate(-123.731 -42.414)"/><path d="M248.433,122.407a1.159,1.159,0,0,1-.295-.81V89.528a1.208,1.208,0,0,1,.295-.859,1.012,1.012,0,0,1,.786-.319h11.1q7.416,0,10.706,3.315t3.389,9.994q.054,1.419.049,3.831c0,1.6,0,2.9-.049,3.88a18.483,18.483,0,0,1-1.5,7.588,9.027,9.027,0,0,1-4.4,4.346,18.685,18.685,0,0,1-7.956,1.424H249.219a1.026,1.026,0,0,1-.786-.319Zm11.885-3.757a12.754,12.754,0,0,0,5.476-.982,5.844,5.844,0,0,0,2.947-3,14.757,14.757,0,0,0,1.007-5.525c.069-1.964.1-3.192.1-3.683s-.029-1.739-.1-3.634q-.093-4.911-2.333-7.195t-7.342-2.284h-7.318v26.274Z" transform="translate(-126.275 -44.957)"/><path d="M315.475,122.638a3.482,3.482,0,0,1-2.593-1.115,3.58,3.58,0,0,1-.943-2.456V86.983a3.629,3.629,0,0,1,.948-2.524,3.467,3.467,0,0,1,2.588-1.11H335.66a3.551,3.551,0,0,1,3.634,3.634v1.768a3.438,3.438,0,0,1-1.11,2.588,3.62,3.62,0,0,1-2.524.948H321.368v6.041H334.56a3.541,3.541,0,0,1,3.634,3.634v1.67a3.551,3.551,0,0,1-3.634,3.61H321.349v6.434h14.684a3.551,3.551,0,0,1,3.634,3.634v1.768a3.521,3.521,0,0,1-1.125,2.608,3.629,3.629,0,0,1-2.51.982Z" transform="translate(-158.743 -42.413)"/><path d="M317.233,122.405a1.159,1.159,0,0,1-.295-.81V89.526a1.208,1.208,0,0,1,.295-.859,1.012,1.012,0,0,1,.786-.319H338.2a1.1,1.1,0,0,1,1.179,1.179v1.768a1.012,1.012,0,0,1-.314.81,1.208,1.208,0,0,1-.859.295H321.461V103.35H337.1a1.1,1.1,0,0,1,1.179,1.179v1.67a1.1,1.1,0,0,1-.319.81,1.159,1.159,0,0,1-.859.319H321.437v11.345h17.14a1.1,1.1,0,0,1,1.179,1.179v1.768a1.061,1.061,0,0,1-.344.81,1.184,1.184,0,0,1-.835.319H318a1.026,1.026,0,0,1-.766-.344Z" transform="translate(-161.287 -44.955)"/><path d="M108.445,30.673a.85.85,0,0,1-.265-.619l.088-.491L119.451.882A1.282,1.282,0,0,1,120.733,0h1.5a1.282,1.282,0,0,1,1.282.884L134.7,29.568l.088.491a.909.909,0,0,1-.884.884h-.884a.923.923,0,0,1-.643-.221,1.233,1.233,0,0,1-.329-.442l-2.74-7.072H113.661l-2.74,7.072a1.252,1.252,0,0,1-.334.442.909.909,0,0,1-.638.221h-.874A.85.85,0,0,1,108.445,30.673Zm19.782-10.122L121.484,3.137l-6.763,17.415Z" transform="translate(-55.052 0.004)"/><path d="M174.286,28.305q-2.947-3.065-2.947-9.331V1.014a1.046,1.046,0,0,1,.275-.732A.933.933,0,0,1,172.322,0h.815a1.017,1.017,0,0,1,.751.265,1.017,1.017,0,0,1,.231.751V19.092q0,4.862,2.254,7.249a8.358,8.358,0,0,0,6.384,2.387,8.274,8.274,0,0,0,6.321-2.387q2.254-2.387,2.23-7.249V1.014a.982.982,0,0,1,.285-.751A1.041,1.041,0,0,1,192.344,0h.8a.933.933,0,0,1,.707.285,1.046,1.046,0,0,1,.265.732V18.96q0,6.321-2.917,9.37t-8.442,3.05Q177.228,31.38,174.286,28.305Z" transform="translate(-87.193 0.004)"/><path d="M228.6,30.675a.85.85,0,0,1-.265-.619,1.017,1.017,0,0,1,.177-.575L238.82,15.2,228.9,1.473A1.017,1.017,0,0,1,228.728.9a.85.85,0,0,1,.265-.619.85.85,0,0,1,.619-.28h1.061a1.243,1.243,0,0,1,1.017.663l8.884,12.376L249.286.663A1.321,1.321,0,0,1,250.3,0h.982a.85.85,0,0,1,.619.265.85.85,0,0,1,.265.619,1.056,1.056,0,0,1-.187.589l-9.768,13.82,10.254,14.173a1.017,1.017,0,0,1,.177.575.909.909,0,0,1-.9.9H250.68a1.321,1.321,0,0,1-1.017-.663L240.446,17.5l-9.238,12.769a1.247,1.247,0,0,1-1.021.668H229.2a.85.85,0,0,1-.609-.265Z" transform="translate(-116.196 0.002)"/><g class="b" transform="translate(0 2.861)"><path class="c" d="M3.719,37.025A3.688,3.688,0,0,1,.841,31.044L19.827,7.21A3.685,3.685,0,1,1,25.593,11.8L6.6,35.635A3.673,3.673,0,0,1,3.719,37.025Z" transform="translate(-0.021 -5.821)"/><path class="c" d="M22.694,85.33a3.683,3.683,0,0,1-2.858-1.351L.83,60.691a3.683,3.683,0,1,1,5.707-4.656l19,23.284a3.683,3.683,0,0,1-2.848,6.011Z" transform="translate(0 -30.685)"/><path class="c" d="M65.542,84.369A1.964,1.964,0,0,1,64,83.633L45.014,59.8a1.967,1.967,0,1,1,3.074-2.456L67.075,81.177a1.964,1.964,0,0,1-.314,2.76A1.93,1.93,0,0,1,65.542,84.369Z" transform="translate(-22.688 -31.664)"/><path class="c" d="M46.554,132.682a1.964,1.964,0,0,1-1.522-3.207l19.006-23.283a1.965,1.965,0,1,1,3.045,2.485L48.076,131.96A1.964,1.964,0,0,1,46.554,132.682Z" transform="translate(-22.691 -56.531)"/></g><path d="M3.719,37.025A3.688,3.688,0,0,1,.841,31.044L19.827,7.21A3.685,3.685,0,1,1,25.593,11.8L6.6,35.635A3.673,3.673,0,0,1,3.719,37.025Z" transform="translate(-0.021 -2.96)"/><path d="M22.694,85.33a3.683,3.683,0,0,1-2.858-1.351L.83,60.691a3.683,3.683,0,1,1,5.707-4.656l19,23.284a3.683,3.683,0,0,1-2.848,6.011Z" transform="translate(0 -27.824)"/><path d="M65.542,84.369A1.964,1.964,0,0,1,64,83.633L45.014,59.8a1.967,1.967,0,1,1,3.074-2.456L67.075,81.177a1.964,1.964,0,0,1-.314,2.76A1.93,1.93,0,0,1,65.542,84.369Z" transform="translate(-22.688 -28.803)"/><path d="M46.554,132.682a1.964,1.964,0,0,1-1.522-3.207l19.006-23.283a1.965,1.965,0,1,1,3.045,2.485L48.076,131.96A1.964,1.964,0,0,1,46.554,132.682Z" transform="translate(-22.691 -53.67)"/></g></g></svg>