<svg xmlns="http://www.w3.org/2000/svg" width="74.836" height="24.573" viewBox="0 0 74.836 24.573"><defs><style>.a{fill:#464646;}</style></defs><path class="a" d="M54.8-556.209H49.128v16.227H54.8c5.184,0,8.555-3.185,8.555-8.09C63.356-553,59.985-556.209,54.8-556.209Zm-2.418,13.461v-10.717h2.3c3.417,0,5.347,2.023,5.347,5.394s-1.93,5.324-5.347,5.324Zm12.484,2.767h3.255v-12.88H64.867Zm1.65-14.414a1.922,1.922,0,0,0,2-1.906,1.922,1.922,0,0,0-2-1.906,1.909,1.909,0,0,0-2,1.906A1.909,1.909,0,0,0,66.518-554.4Zm3.046,7.928c0,4.022,2.6,6.7,5.882,6.7a5.08,5.08,0,0,0,4.255-2.116v2c0,2.395-1.395,3.417-3.185,3.417a3.028,3.028,0,0,1-3.162-1.93H70.121c.325,2.952,2.86,4.766,6.486,4.766,4.231,0,6.37-2.767,6.37-6.254v-12.973H79.7v1.837a5.039,5.039,0,0,0-4.255-2.046c-3.278,0-5.882,2.581-5.882,6.6Zm10.136.046a3.468,3.468,0,0,1-3.417,3.789,3.52,3.52,0,0,1-3.394-3.836,3.435,3.435,0,0,1,3.394-3.743,3.468,3.468,0,0,1,3.417,3.789Zm11.02,2.557-3.325-9h-3.65l5.161,12.554-2.79,6.417H89.58l7.974-18.971H94.09Zm8.16-.116c0,2.952,1.65,4,4.115,4h2.046v-2.743h-1.511c-1.023,0-1.372-.372-1.372-1.232v-6.231h2.883v-2.674h-2.883v-3.185H98.879v3.185H97.345v2.674h1.534Zm7.579,4h3.255v-17.2h-3.255ZM117.524-550.4a2.862,2.862,0,0,1,3.069,2.767h-6.114a2.991,2.991,0,0,1,3.045-2.767Zm6.114,6.37h-3.51a2.654,2.654,0,0,1-2.581,1.557,3.014,3.014,0,0,1-3.092-2.976h9.416a7.608,7.608,0,0,0,.093-1.255,6.046,6.046,0,0,0-6.347-6.37c-3.813,0-6.463,2.581-6.463,6.649,0,4.045,2.72,6.649,6.463,6.649a5.986,5.986,0,0,0,6.021-4.254Z" transform="translate(-49.128 558.208)"/></svg>