<?xml version="1.0" encoding="UTF-8"?>
<!DOCTYPE svg PUBLIC "-//W3C//DTD SVG 1.1//EN" "http://www.w3.org/Graphics/SVG/1.1/DTD/svg11.dtd">
<!-- Creator: CorelDRAW 2019 (64-Bit) -->
<svg xmlns="http://www.w3.org/2000/svg" xml:space="preserve" width="60.1293mm" height="18.7003mm" version="1.1" shape-rendering="geometricPrecision" text-rendering="geometricPrecision" image-rendering="optimizeQuality" fill-rule="evenodd" clip-rule="evenodd"
viewBox="0 0 136.48 42.45"
 xmlns:xlink="http://www.w3.org/1999/xlink">
 <g id="Layer_x0020_1">
  <metadata id="CorelCorpID_0Corel-Layer"/>
  <g id="_1862105829920">
   <path fill="black" d="M64.79 26.82c-0.04,0.15 -0.71,0.88 -0.84,1.03 -0.01,0.01 -0.05,0.06 -0.07,0.07 -0.01,0.01 -0.02,0.02 -0.03,0.03 -0.66,0.65 -0.77,0.9 -1.27,1.44l-0.77 0.82c-0.05,0.05 -0.09,0.1 -0.13,0.14l-1.07 1.08c-0.01,0.01 -0.05,0.06 -0.07,0.07 -0.29,0.29 -0.39,0.29 -0.66,0.66 -0.46,0.62 -0.46,0.58 -1.08,1.15 -0.01,0.01 -0.03,0.02 -0.04,0.03 -0.01,0.01 -0.03,0.02 -0.04,0.03 -0.04,0.04 -0.07,0.07 -0.1,0.11l-1.33 1.24c-0.23,0.2 -0.24,0.11 -0.51,0.39 -0.01,0.01 -0.05,0.06 -0.06,0.07 -0.06,0.05 -0.03,0.03 -0.11,0.09l-0.34 0.29c-0.26,0.33 -0.07,0.35 -0.65,0.66 -0.17,0.09 -0.28,0.15 -0.41,0.28 -0.2,0.19 -0.12,0.33 -0.82,0.5 -0.14,-0.21 -0.24,-0.19 -0.26,-0.45 -0,-0.01 -0,-0.03 -0,-0.05l0.42 -1.16 1.75 -2.28c0.24,-0.29 0.26,-0.09 0.53,-0.45l1.69 -1.36c0.27,-0.21 0.4,-0.42 0.7,-0.62l1.51 -1.12c0.15,-0.14 1.11,-0.65 1.63,-1.07l2.45 -1.65zm0 0l0 0zm4.44 -3.96c0.08,-0.22 -0.15,-0.1 0.21,-0.14l-0.21 0.14zm-5.83 -2.36l0 0zm-16.59 -1.87c-0.06,0.21 0,0.15 -0.21,0.21l0.21 -0.21zm0.07 -0.07l-0.07 0.07 0.07 -0.07zm29.01 -0.97c-0.04,0.46 -0.4,0.56 -0.7,0.76 -0.22,0.14 -0.71,0.78 -1.31,1.19 0.08,-0.31 1.28,-1.37 1.61,-1.66l0.25 -0.17c0.09,-0.06 0.08,-0.06 0.16,-0.12zm0.07 -0.07l-0.07 0.07 0.07 -0.07zm29.84 2.22c-0.52,0 -0.76,0.09 -0.73,-0.42 0.02,-0.28 0.38,-0.55 0.52,-0.82 0.04,-0.07 0.07,-0.15 0.11,-0.23l0.68 -1.13c0.53,-0.77 0.64,-0.52 0.8,-0.52 0.28,0 0.44,-0.1 0.64,-0.12 0.36,-0.04 0.39,0.14 1.57,-0.02 0.36,-0.05 0.33,-0.13 0.84,-0.13 -0.26,0.49 -0.25,0.24 -0.56,0.62l-0.35 0.41c-0.2,0.18 -0.37,0.24 -0.57,0.4 -0.62,0.51 -0.2,0.36 -1.01,0.93 -0.66,0.46 0.25,0.16 -0.72,0.46 -0.3,0.09 -0.78,0.58 -1.22,0.58zm-17.77 -3.61l-0.04 0.15 0.04 -0.15zm0 0l0 0zm-12.08 1.39c0.16,-0.22 0.12,-0.06 0.29,-0.27 0.37,-0.45 -0.13,-0.02 0.56,-0.55 0.69,-0.53 0.2,-0.54 0.73,-0.8l0.33 -0.15c0.01,-0.01 0.03,-0.02 0.05,-0.02 0.12,-0.06 0.19,-0.13 0.34,-0.21 -0.06,0.24 -0.09,0.21 -0.33,0.43 -0.01,0.01 -0.06,0.05 -0.07,0.07l-0.07 0.07c-0.47,0.43 -0.24,0.03 -0.57,0.55 -0.14,0.22 -0.1,0.15 -0.33,0.3l-0.22 0.19c-0.24,0.27 -0.22,0.41 -0.7,0.41zm2.36 -2.08l-0.07 0.07 0.07 -0.07zm0 0c0.1,-0.15 0.01,-0.09 0.21,-0.14 -0.1,0.15 -0.01,0.09 -0.21,0.14zm0.21 -0.14l0.14 -0.08 -0.14 0.08zm-46.99 0.83c-0.38,0.03 -0.48,0.34 -0.68,0.57 -0.22,0.23 -0.55,0.23 -0.57,0.75l-0.5 0.19c-0.01,0.01 -0.03,0.02 -0.04,0.03 -0.22,0.18 -0.17,0.36 -0.65,0.74 -0.01,0.01 -0.03,0.02 -0.04,0.03 -0.53,0.42 -0.46,0.52 -0.84,0.89 -0.46,0.44 -0.06,0.29 -0.5,0.48 -0.59,0.26 -0.15,0.28 -0.62,0.56 -0.57,0.33 -0.09,0.12 -0.67,0.58 -0.67,0.52 -0.17,0.35 -0.62,0.63l-3.04 2.79c-0.5,0.43 -0.3,0.42 -0.81,0.79 -0.33,0.24 -0.04,0.11 -0.51,0.39 -0.12,0.08 -0.09,0.06 -0.2,0.15 -0.46,0.37 -0.84,0.93 -1.43,1.07 -0.09,-0.19 -0.09,-0.34 -0.21,-0.56 0.21,-0.07 0.4,-0.45 0.47,-0.64 0.17,-0.45 0.26,-0.7 0.59,-1.08 0.3,-0.34 0.22,-0.25 0.41,-0.7 0.1,-0.23 0.09,-0.16 0.21,-0.35 0.06,-0.1 0.04,-0.07 0.1,-0.18 0.01,-0.02 0.04,-0.07 0.05,-0.09 0.01,-0.01 0.02,-0.03 0.03,-0.04l0.52 -0.66c0.26,-0.4 -0.07,-0.27 0.46,-0.65 0.2,-0.14 0.11,-0.07 0.26,-0.29 0.41,-0.59 0.3,-0.12 0.85,-0.82 0.09,-0.12 0.16,-0.18 0.27,-0.28l0.18 -0.16c0.48,-0.44 -0.02,-0.1 0.7,-0.62l2.8 -2.2c0.28,-0.17 0.54,-0.14 0.57,-0.54 0.43,0 0.22,0.03 0.43,-0.13 0.57,-0.45 0.82,-0.47 1.37,-0.85 0.31,-0.22 0.42,-0.31 0.72,-0.39 0.14,-0.04 0.09,0 0.22,-0.06l0.12 -0.09c0.01,-0.01 0.02,-0.03 0.04,-0.04l0.18 -0.16c0.13,-0.07 0.55,-0.06 0.99,-0.27 0.15,-0.07 0.22,-0.25 0.32,-0.05 0.12,0.23 -0.18,0.27 -0.44,0.56 -0.12,0.14 -0.12,0.17 -0.25,0.31 -0.18,0.19 -0.2,0.1 -0.22,0.4zm56.64 -0.21c0.26,-1.11 0.04,-0.96 0.14,-1.39 0.5,0 0.65,0.11 1.04,0.14 -0.08,0.12 -0.13,0.2 -0.24,0.32l-0.1 0.11c-0.41,0.44 -0.18,0.38 -0.84,0.83zm-2.29 -2.22l-0.14 0.08 0.14 -0.08zm-0.35 0.07l0 0zm1.46 -0.14l0 0zm-1.11 0.07l0.14 -0.08 -0.14 0.08zm0.69 -0.14l0.02 0.02c-0,-0 -0.03,-0.01 -0.02,-0.02zm-23.18 6.94c0.04,-0.15 0.08,-0.26 0.14,-0.42 0.1,-0.27 0.11,-0.21 0.27,-0.43l0.17 -0.25c0.12,-0.16 0.15,-0.18 0.27,-0.36 0.16,-0.25 0.22,-0.25 0.45,-0.46 0.01,-0.01 0.03,-0.02 0.04,-0.03l1.66 -1.6c0.42,-0.42 0.64,-0.52 0.95,-0.78 0.05,-0.05 0.07,-0.08 0.14,-0.14 0.14,-0.11 0.23,-0.11 0.38,-0.24 0.78,-0.68 0.77,-0.53 0.99,-0.68 0.15,-0.1 0.09,-0.11 0.19,-0.23 0.16,-0.19 0.25,-0.16 0.48,-0.29l0.36 -0.19c0.64,-0.22 0.02,-0.03 0.74,-0.44 0.35,-0.2 0.24,-0.29 0.64,-0.47 0.72,-0.31 1.86,-1.38 2.19,0.04 -0.45,0.12 -0.01,0.21 -0.51,0.53 -0.64,0.4 -0.27,0.17 -0.69,0.35 -0.19,0.09 -0.34,0.38 -0.89,0.71l-2.79 2.07c-0.41,0.48 -0.19,0.21 -0.72,0.59 -0.02,0.01 -0.07,0.04 -0.08,0.06 -0.19,0.16 -0.26,0.32 -0.64,0.54 -0.98,0.59 -0.06,0.26 -0.95,0.72l-1.42 0.59c-0.22,0.02 -0.47,-0.05 -0.76,0.28 -0.23,0.26 -0.14,0.45 -0.62,0.49zm22.21 -7.15l0.02 0.02c-0,-0 -0.03,-0.01 -0.02,-0.02zm35.4 3.47c0.14,-0.38 0.99,-0.9 1.35,-1.15l1.02 -0.65c0.2,-0.16 -0.06,-0.05 0.26,-0.16 0.1,-0.03 0.19,-0.05 0.35,-0.06 0.36,-0.04 0.36,0.05 0.67,-0.01 0.23,-0.05 0.48,-0.18 0.73,-0.18 0.26,0 0.07,0.14 0.62,0.14 0.55,0 0.42,-0.5 0.14,-0.7 -0.38,-0.27 -0.57,0.05 -1.04,-0.06 0.01,-0.01 0.04,-0.04 0.04,-0.02l0.98 -0.61c0.01,-0.01 0.03,-0.02 0.04,-0.03 0.79,-0.49 0.38,-0.05 1,-0.53l1.89 -0.89c0.3,-0.23 0.27,-0.23 0.76,-0.28 0.11,-0.01 1.67,-0.48 1.15,0.53 -0.28,0.55 -0.41,0.34 -0.79,0.67l-0.61 0.5c-0.21,0.13 -0.03,0.03 -0.19,0.09 -0.55,0.18 -0.28,0.24 -0.9,0.49l-1.26 0.61c-0.24,0.16 -0.35,0.25 -0.66,0.31 -0.39,0.07 -0.79,0.39 -1.29,0.59 -0.25,0.1 -0.44,0.18 -0.68,0.23l-0.55 0.15c-0.09,0.02 -0.14,0.01 -0.24,0.03 -0.21,0.04 -0.45,0.18 -0.65,0.26 -0.19,0.07 -0.21,0.03 -0.39,0.09 -0.19,0.06 -0.53,0.39 -1,0.45 -0.2,0.03 -0.25,-0.02 -0.44,0.05 -0.21,0.08 -0.01,0.09 -0.32,0.17zm-7.29 -7.71c0.07,-0.07 0.26,0.11 0.08,0.04 -0,-0 -0.19,0.08 -0.08,-0.04zm-66.84 9.44c0.05,-0.2 0.54,-0.86 0.68,-0.98l1.31 -1.54c0.11,-0.13 0.03,-0.03 0.1,-0.11l0.4 -0.43c0.01,-0.01 0.02,-0.02 0.03,-0.04 0.26,-0.29 -0.03,-0.1 0.51,-0.6l1.42 -1.64c0.35,-0.37 -0.11,-0.03 0.44,-0.52l1.35 -1.3c0.2,-0.23 0.24,-0.11 0.71,-0.61 0.23,-0.24 0.3,-0.43 0.51,-0.61l0.12 -0.09c0.01,-0.01 0.03,-0.02 0.04,-0.03 0.51,-0.44 0.96,-0.96 1.43,-1.28 0.24,-0.16 0.19,-0.19 0.36,-0.34 0.17,-0.15 0.27,-0.12 0.42,-0.27 0,-0 0.47,-0.78 0.64,-0.6 0.05,0.11 0.05,-0.02 -0.01,0.13 -0.11,0.26 -0.12,0.04 -0.56,0.62l-0.23 0.26c-0.15,0.19 -0.15,0.23 -0.28,0.42l-1.09 1.27c-0.6,0.45 0.06,0.17 -0.78,0.88 -0.72,0.6 -0.39,0.8 -0.91,1.17l-0.39 0.31c-0.71,0.75 -0.58,0.62 -1.21,1.43 -0.14,0.17 -0.17,0.22 -0.32,0.37 -0.39,0.38 -0.32,0.12 -0.48,0.49 -0.09,0.22 0.08,0.04 -0.13,0.22 -0.17,0.15 -0.27,0.09 -0.47,0.22 -0.64,0.45 -0.73,0.55 -1.24,1.12 -0.04,0.04 -0.02,0.03 -0.07,0.07l-0.46 0.44c-0.01,0.01 -0.06,0.05 -0.07,0.07 -0.01,0.01 -0.03,0.02 -0.04,0.03 -0.01,0.01 -0.02,0.03 -0.03,0.04 -0.14,0.15 0.07,0.03 -0.31,0.24l-0.25 0.23c-0.35,0.42 -0.39,0.23 -0.76,0.63 -0.28,0.31 -0.03,0.11 -0.4,0.29zm78.64 -15.41c0.01,-0.01 0.02,0.01 0.02,0.02l-0.02 -0.02zm-79.75 1.74c-0.99,0 -0.87,0.6 -1.46,0.9 -0.06,0.03 -0.18,0.07 -0.23,0.12 -0.26,0.2 -0.01,0.22 -0.69,0.63l-0.83 0.7c-0.02,0.01 -0.07,0.04 -0.09,0.05 -0.04,0.02 -0.19,0.11 -0.22,0.13l-0.25 0.24c-0.06,0.05 -0.06,0.04 -0.13,0.08l-0.24 0.18c-0.68,0.64 -0.72,0.48 -1.45,0.91l-0.88 0.51c0.26,-0.38 0.44,-0.44 0.64,-0.68 0.61,-0.75 0.58,-0.42 0.61,-0.77 0.31,-0.01 0.73,-0.45 0.91,-0.68 0.32,-0.41 0.47,-0.49 0.84,-0.83 0.27,-0.25 0.21,-0.07 0.9,-0.76 0.15,-0.15 0.26,-0.27 0.42,-0.42l0.37 -0.39c0.44,-0.49 1.05,-0.77 1.38,-1.19l0.62 -0.63c0.1,-0.1 0.12,-0.1 0.24,-0.18l0.87 -0.59c0.41,-0.28 0.39,-0.3 0.74,-0.3 -0.02,0.23 0.02,0.06 -0.06,0.22 -0.16,0.32 -0.09,-0.04 -0.4,0.57 -0.2,0.39 -0.04,0.13 -0.33,0.29l-1.2 1.44c-0.15,0.18 -0.19,0.25 -0.09,0.46zm41.23 8.75l0 -0.21c-0.19,-0 -0.85,-0.06 -1.09,-0.1 -0.29,-0.05 -0.63,-0.11 -0.46,0.31 0.1,0.24 -0.01,0 0.08,0.14 -0.11,0.16 -0.22,0.25 -0.4,0.37 -0.64,0.44 -1.53,0.55 -2.09,1.11 -0.14,0.14 -0.28,0.31 -0.46,0.37 -0.45,0.16 -0.16,-0.11 -0.48,0.28l-0.5 0.4c-0.4,0.19 -0.46,0.26 -0.75,0.57l-1.07 0.74c-0.38,0.18 -0.57,0.53 -0.89,0.78l-0.18 0.17c-0.39,0.53 -0.44,0.33 -0.9,0.7 -0.23,0.19 -0.37,0.2 -0.52,0.32 -0.16,0.13 -0.12,0.31 -0.35,0.42l-2.89 2.18c-0.24,0.16 -0.28,0.07 -0.66,0.38l-1.14 0.47c-0.31,0 -0.27,-0.13 -0.3,-0.45 -0.07,-0.74 0.74,-0.86 0.8,-1.63 0.5,0 0.35,-0.11 0.64,-0.33 0.12,-0.09 0.17,-0.09 0.3,-0.18 0.61,-0.4 1.04,-1.01 1.63,-1.42l0.2 -0.14c0.38,-0.3 0.54,-0.37 0.86,-0.73 0.01,-0.01 0.02,-0.03 0.03,-0.04 0.49,-0.56 1.19,-0.77 1.72,-1.27 0.34,-0.33 -0.13,-0.35 0.34,-0.52 0.11,-0.04 -0.09,0.05 0.08,-0.03l0.53 -0.37c0.01,-0.01 0.02,-0.03 0.03,-0.04l0.14 -0.21c0.11,-0.22 -0.13,-0.05 0.2,-0.28 0.11,-0.08 0.2,-0.09 0.32,-0.17 0.38,-0.24 0.66,-0.72 1.02,-0.99 0.17,-0.13 0.41,-0.33 0.56,-0.49 -0.15,-0.29 -0.32,-0.56 -0.73,-0.52 -0.34,0.04 -0.77,0.26 -1.01,0.38 -0.49,0.25 -0.43,0.14 -0.9,0.49 -0.75,0.55 -0.72,0.3 -1.85,1.35 -0.26,0.24 -0.64,0.47 -0.85,0.74l-0.37 0.32c-0.29,0.24 -0.4,0.5 -0.66,0.73l-1.01 1.01c-0.26,0.28 -0.51,0.35 -0.73,0.65 -0.01,0.01 -0.02,0.03 -0.03,0.04 -0.01,0.01 -0.02,0.03 -0.03,0.04 -0.11,0.14 -0.02,0.02 -0.1,0.11l-0.48 0.56c-0.06,0.07 -0.08,0.12 -0.15,0.2l-0.52 0.52c-0.11,0.14 -0.17,0.31 -0.27,0.43l-0.66 0.73c-0.09,0.11 -0.06,0.08 -0.17,0.18l-0.07 0.07c-0.28,0.29 -0.61,0.41 -0.92,0.67 -0.21,0.17 -0.13,0.18 -0.44,0.26 0.19,-0.29 0.41,-0.71 0.67,-0.93 0.24,-0.21 0.11,-0.09 0.22,-0.33l0.22 -0.27c0.01,-0.01 0.03,-0.02 0.04,-0.03 0.03,-0.03 0.24,-0.28 0.25,-0.3 0.16,-0.25 0.18,-0.52 0.36,-0.75l0.42 -0.69c0.17,-0.24 0.36,-0.35 0.47,-0.64 0.09,-0.21 0.03,-0.2 0.15,-0.41l0.44 -0.67c0.3,-0.42 0.44,-0.99 0.77,-1.39 0.25,-0.31 0.35,-0.75 0.55,-1.12 0.14,-0.26 0.35,-0.44 0.42,-0.69 0.09,-0.35 0.06,-0.47 0.35,-0.76 0.5,-0.51 0.45,-0.3 0.8,-0.93l0.08 -0.13c0.35,-0.52 0.18,-1.08 -0.47,-1.09 -0.4,-0 -0.71,-0.06 -1.19,0.06l-0.83 0.28c-0.66,0.28 -1.33,0.45 -1.92,0.86l-2.35 1.47c-0.61,0.38 -1.16,0.93 -1.95,0.83 -0.47,-0.06 -0.15,-0.22 -1.16,-0.19l-0.97 -0c-0.56,0.08 -1.26,-0.02 -1.96,-0.02 0.07,-0.26 0.04,-0.13 0.2,-0.29l0.73 -0.73c0.28,-0.35 0.04,-0.31 0.41,-0.56 0.39,-0.26 0.64,-0.64 0.95,-0.99l0.36 -0.33c0.01,-0.01 0.02,-0.03 0.03,-0.04l0.07 -0.07c0.01,-0.01 0.02,-0.03 0.03,-0.04 0,0 0.09,-0.09 0.1,-0.1 0.39,-0.38 0.62,-0.84 1.02,-1.2 0.22,-0.2 0.06,-0.01 0.23,-0.25 0.11,-0.16 0.06,-0.13 0.21,-0.27 0.07,-0.07 0.04,-0.03 0.11,-0.1 0.01,-0.01 0.03,-0.02 0.04,-0.03 0.01,-0.01 0.03,-0.02 0.04,-0.03l0.07 -0.07c0.24,-0.25 0.32,-0.48 0.61,-0.71l0.54 -0.58c0.47,-0.64 0.49,-0.48 0.7,-0.75 0.19,-0.24 0.15,-0.3 0.44,-0.53 0.3,-0.23 0.26,-0.22 0.46,-0.52 -0.32,-0.15 -0.29,0.05 -0.49,-0.13 -0.02,-0.01 0.01,-0.04 -0.13,-0.14 -0.06,0.03 -0.12,0.05 -0.19,0.09l-1.7 1c-0.19,0.16 -0.16,0.24 -0.27,0.36 -0.14,0.14 -0.27,0.02 -1.01,0.8 -0.04,0.04 -0.1,0.11 -0.14,0.14l-0.12 0.09c-0.02,0.01 -0.06,0.05 -0.08,0.06l-0.89 0.98c-0.14,0.26 -0.12,0.42 -0.37,0.53 -0.18,0.08 -0.29,0.09 -0.36,0.26 -0.03,0.06 -0.01,0.14 -0.08,0.27 -0.14,0.14 -0.24,-0.25 -0.88,0.58l-0.19 0.22c-0.24,0.33 -0.36,0.31 -0.62,0.56l-0.32 0.65c-0.16,0.54 -0.47,0.31 -0.82,0.56l-0.62 0.56c-0.21,0.14 -0.08,-0.05 -0.23,0.19 -0.13,0.21 -0.04,0.4 -0.27,0.57l-0.53 0.23c-0.5,0.27 -1.11,0.05 -1.66,0.21 -0.25,0.07 -0.62,0.31 -0.76,0.49 -0.27,0.37 0.1,0.33 -0.39,0.44 0.03,0.32 0.4,0.47 0.62,0.62 0.29,-0.07 0.19,-0.13 0.56,-0.14l0 0.14c-0.36,0 -0.35,0.06 -0.76,0.42 -0.08,0.07 -0.04,0.02 -0.13,0.15 -0.05,0.07 -0.09,0.13 -0.13,0.22 -0.1,0.21 -0.04,0.14 -0.09,0.4 -0.56,-0.12 -0.76,0.4 -1.08,0.73 -0.31,0.31 -0.92,0.49 -1.14,0.88l-0.19 0.29c-0.11,0.08 -0.19,0.08 -0.31,0.18 -0.57,0.47 0.31,0.02 -0.9,0.62 -0.31,0.15 -0.18,0.34 -0.49,0.48 -0.14,0.06 -0.29,0.09 -0.46,0.09 0.11,-0.47 0.51,-0.89 0.85,-1.24 0.52,-0.54 0.44,-0.7 1.19,-1.38 0.21,-0.19 0.25,-0.43 0.42,-0.62 0.04,-0.04 0.23,-0.18 0.3,-0.25 0.18,-0.19 0.25,-0.42 0.42,-0.62l1.52 -1.67c0.24,-0.3 0.53,-0.44 0.74,-0.79 0.23,-0.38 0.93,-0.61 0.63,-0.76 -0.31,-0.15 -1.32,0.21 -1.58,0.43 -0.2,0.17 -0.46,0.29 -0.6,0.51 -0.11,0.18 0.01,0.13 -0.22,0.27 -0.55,0.32 -0.43,-0.03 -0.92,0.68 -0.21,0.3 -0.56,0.43 -0.66,0.59 -0.05,0.09 -0,0.06 -0.08,0.2 -0.11,0.2 -0.42,0.32 -0.62,0.42 -0.47,0.23 -0.14,0.17 -0.66,0.52 -0.56,0.37 -0.53,0.6 -1.16,0.86 -0.32,0.13 -0.57,0.54 -0.85,0.74l-2.23 1.38 -2.23 0.97c-0.35,0.12 -0.93,0.26 -1.16,0.04 -0.18,-0.17 -0.26,-0.51 -0.12,-0.76 0.56,-1.04 0.41,-0.46 1.06,-1.02 0.5,-0.43 1.37,-1.17 1.92,-1.48 0.12,-0.07 0.07,-0.02 0.16,-0.12 0.14,-0.14 0.15,-0.26 0.22,-0.34 0.15,-0.18 0.42,-0.3 0.61,-0.44 0.41,-0.3 0.68,-0.68 1.09,-0.99 0.38,-0.28 0.4,-0.52 0.78,-0.74 0.19,-0.11 0.17,-0.11 0.32,-0.24 0.56,-0.48 1.18,-0.98 1.65,-1.54 0.17,-0.2 0.28,-0.41 0.45,-0.59l0.9 -0.91c0.1,-0.1 0.05,-0.06 0.16,-0.13 0.24,-0.15 0.14,-0.15 0.28,-0.34l1.37 -1.48c0.3,-0.28 0.45,-0.65 0.74,-0.93l0.72 -0.8c0.11,-0.14 0.09,-0.2 0.22,-0.34l1.37 -1.47c0.41,-0.68 0.79,-0.78 1.23,-1.7 0.24,-0.51 -0.15,-0.47 -0.45,-0.4l-0.09 0.02c-0.02,0 -0.12,0 -0.14,0 -0.52,0.01 -1.6,0.49 -2,0.9 -0.07,0.07 -0.1,0.11 -0.16,0.18 -0.19,0.21 -0.39,0.3 -0.63,0.49l-2.18 1.92c-0.17,0.15 -0.19,0.08 -0.35,0.28l-0.7 0.76c-0.01,0.01 -0.02,0.02 -0.03,0.04 -0.01,0.01 -0.02,0.02 -0.03,0.03l-0.9 0.83c-0.23,0.18 -0.11,0.13 -0.27,0.35l-0.45 0.38c-0.09,0.07 -0.03,0.03 -0.12,0.09l-2.49 2.58c-0.29,0.42 -0.26,0.46 -0.93,0.46 0.12,0.54 -0.17,0.62 -0.46,1l-0.5 0.54c-0.35,0.41 -0.54,0.73 -0.95,1.07 -0.31,0.26 -0.29,0.43 -0.58,0.74 -0.13,0.13 -0.2,0.24 -0.31,0.38 -0.22,0.26 -0.37,0.46 -0.56,0.75l-0.35 0.34c-0.01,0.01 -0.03,0.02 -0.04,0.03 -0.21,0.15 -0.32,0.36 -0.5,0.55l-0.16 0.34c0,0.01 0.01,0.03 0.01,0.04 0,0.01 0.01,0.03 0.02,0.04l0.05 0.09c0,0.01 0.02,0.03 0.03,0.04 -0.51,0.34 -0.13,0.47 -1.29,0.79 -0.54,0.15 -0.71,0.16 -1.18,-0.06 -0.27,-0.13 -0.17,-0 -0.26,-0.29 -0.08,-0.23 -0.17,-0.55 -0.03,-0.84 0.07,-0.14 0.12,-0.18 0.2,-0.29 0.09,-0.12 0.13,-0.21 0.21,-0.34l0.33 -0.43c0.01,-0.01 0.02,-0.03 0.03,-0.04 0.3,-0.35 1.42,-1.49 1.74,-1.66 0.43,-0.23 0.66,-0.56 1.05,-0.82 0.07,-0.05 0.11,-0.06 0.17,-0.1l1.25 -0.9c0.45,-0.32 1.25,-0.14 1.25,-0.91 -0.24,-0.06 -0.16,-0.03 -0.28,-0.21 -0.39,0.19 -0.9,0.3 -1.23,0.57 -0.34,0.28 -0.78,0.48 -1.16,0.71l-0.81 0.58c-0.12,0.09 -0.14,0.13 -0.25,0.24 -0.24,0.24 -0.28,0.14 -0.52,0.38 -0.11,0.1 -0.13,0.15 -0.25,0.24l-0.46 0.45c-0.29,0.32 -0.7,0.49 -0.98,0.82l-1.57 1.76c-0.18,0.23 -0.05,0.09 -0.14,0.27 -0.15,0.29 -0.36,0.54 -0.46,0.99 -0.51,-0.11 -0.35,0.26 -1.04,0.35 -0.48,0.06 -0.89,0.14 -1.01,-0.4 -0.07,-0.29 0.05,-0.33 0.15,-0.54l0.19 -0.43c0.01,-0.02 0.04,-0.07 0.06,-0.08 0.22,-0.34 0.43,-0.59 0.66,-0.93 0.05,-0.08 0.1,-0.14 0.15,-0.2l1.36 -2.18c0.42,-0.9 0.71,-0.68 0.24,-1.56 -0.4,0 -0.61,0.01 -0.87,0.17 -0.16,0.1 -0.14,0.14 -0.26,0.22 -0.34,0.23 -0.56,0.09 -1.63,1.01l-0.59 0.45c-0.5,0.43 -0.23,0.04 -1.1,0.85l-0.83 0.56c-0.6,0.33 -0.46,0.4 -1.1,0.77 -0.18,0.1 -0.12,0.11 -0.26,0.22 -0.25,0.2 -0.1,0.05 -0.38,0.17 -0.22,0.1 -0.86,0.63 -1.25,0.83 -0.47,0.23 -0.86,0.54 -1.35,0.73 -0.34,0.13 -0.53,0.2 -0.91,0.2 0.36,-0.68 0.28,-0.45 0.82,-1.06 0.35,-0.39 0.4,-0.64 0.86,-1.09 0.2,-0.19 0.07,-0.14 0.24,-0.39l0.59 -0.72c0.41,-0.5 1.14,-1.35 1.39,-1.88l0.44 -0.88c0.45,-0.7 0.17,-0.15 0.54,-0.99 0.42,-0.96 -0.29,-0.33 0.89,-1.4l1.67 -1.53c0.23,-0.19 0.07,-0.14 0.37,-0.33 0.79,-0.5 1.68,-0.92 2.48,-1.41l1.95 -1.24c0.01,-0.01 0.03,-0.02 0.04,-0.03l2.21 -1.61c0.33,-0.31 -0.26,0.23 0.07,-0.07 0.01,-0.01 0.03,-0.02 0.04,-0.03l0.63 -0.48c0.14,-0.13 0.2,-0.22 0.37,-0.32 0.11,-0.07 0.06,-0.02 0.18,-0.1l1.63 -1.49c0.33,-0.32 0.58,-0.46 0.88,-0.85l0.2 -0.22c0.02,-0.02 0.06,-0.05 0.11,-0.1 0.5,-0.55 1.13,-1.1 1.53,-1.73 0.15,-0.24 0.34,-0.62 0.37,-0.95 -0.71,-0.19 -0.19,-0.53 -1.57,-0.04 -0.4,0.14 -0.65,0.35 -1.04,0.49l-2.06 1.27c-0.01,0.01 -0.03,0.02 -0.04,0.03 -0.07,0.04 -0.05,0.01 -0.16,0.12 -0.16,0.15 -0.07,0.14 -0.21,0.27 -0.24,0.23 -0.29,0.12 -0.59,0.45l-0.44 0.33c-0.01,0.01 -0.03,0.02 -0.04,0.03l-3.08 2.89c-0.27,0.31 -0.42,0.14 -0.42,0.7 -0.25,-0.12 -0.37,0.11 -0.57,0.33 -0.39,0.42 -0.84,0.74 -1.07,1.01l-2.06 2.1c-0.43,0.33 -0.66,0.71 -1.15,0.93 -0.26,0.12 -0.38,0.29 -0.67,0.37l-0.7 0.34c-0.01,0.01 -0.03,0.01 -0.05,0.02l-0.79 0.33c-0.01,0 -0.04,-0.02 -0.19,0.02 -0.31,0.08 -0.52,0.31 -1.16,0.43 -0.62,0.11 -0.33,0.3 -1.15,0.25 -0.34,-0.02 -0.26,-0.15 -0.37,0.11 -0.03,0.07 -0.2,0.05 0.1,0.17 0.36,0.15 0.71,-0.04 1.15,-0.04l0.14 -0.28c0.09,0.22 -0.07,0.13 0.23,0.1 0.48,-0.05 1.46,-0.39 1.91,-0.53 0.13,-0.04 0.23,-0.06 0.36,-0.13 -0.1,0.38 -0.58,0.73 -0.86,1.01l-0.4 0.36c-0.01,0.01 -0.03,0.02 -0.04,0.02 -0.59,0.35 -0.7,0.29 -1.52,0.49 -0.25,0.06 -0.56,0.25 -0.83,0.29 -0.21,0.03 -0.31,0.13 -0.53,0.23 -0.11,0.05 -0.13,0.04 -0.26,0.09 -0.36,0.17 -0.53,0.53 -1.11,0.7 -0.43,0.12 -0.75,0.42 -1.15,0.66 -0.15,0.09 0.02,0.01 -0.18,0.1 -0.09,0.04 -0.1,0.03 -0.2,0.08l-0.4 0.22c-0.26,0.17 -0.39,0.41 -0.64,0.54 -0.21,0.11 -0.31,0.13 -0.5,0.33l-0.18 0.17c-0.24,0.21 -0.42,0.31 -0.68,0.5 -0.22,0.17 -0.12,0.11 -0.28,0.28 -0.2,0.21 -0.48,0.31 -0.66,0.52 -0.13,0.15 -0.17,0.15 -0.33,0.3 -0.06,0.06 -0.08,0.09 -0.14,0.14 -0.61,0.5 -0.28,0.39 -0.43,0.54 -0.19,0.19 -0.07,-0.32 -1.21,0.88l-0.43 0.47c-0.26,0.22 -0.21,0.52 -0.5,0.75 -0.88,0.68 -0.6,0.87 -1.02,1.41 -0.23,0.3 -0.09,0.06 -0.36,0.26 -0.18,0.13 -0.4,0.49 -0.56,0.69 -0.32,0.37 -0.16,0.48 -0.39,0.86 -0.19,0.33 -0.25,0.48 -0.32,0.86 -0.06,0.35 -1.36,2.5 -0.09,2.21 0.16,-0.04 -0,0.03 0.19,-0.09 0.69,-0.41 0.26,0.03 1.02,-0.65 0.01,-0.01 0.03,-0.02 0.04,-0.03l0.94 -0.73c0.41,-0.21 0.42,-0.21 0.73,-0.51 0.06,-0.06 0.08,-0.08 0.14,-0.13l0.83 -0.7c0.3,-0.35 0.43,-0.41 0.74,-0.71 0.01,-0.01 0.05,-0.06 0.07,-0.07l0.06 -0.08c0.22,-0.25 0.75,-0.58 1.12,-1.03l0.53 -0.44c0.31,-0.23 0.32,-0.4 0.64,-0.61 0.3,-0.19 0.84,-0.85 1.14,-1.15 0.01,-0.01 0.02,-0.03 0.03,-0.04l3.2 -2.98c0.14,-0.11 0.19,-0.2 0.3,-0.32l0.92 -0.95c0.12,-0.12 0.19,-0.19 0.41,-0.21 0,0.55 -0.26,0.72 -0.51,1.16 -0.12,0.22 -0.05,0.09 -0.18,0.24l-1.14 1.57c-0.08,0.08 -0.04,0.05 -0.11,0.1 -0.18,0.16 -0.05,-0.01 -0.21,0.2l-0.58 0.67c-0.34,0.34 -0.4,0.62 -0.73,0.94 -0.5,0.49 -0.43,0.39 -0.35,0.95 0,0.01 0,0.03 0,0.05 0.02,0.15 -0.05,0.17 0.16,0.27 0.12,0.05 0.21,0.06 0.36,0.03l1.39 -0.5c0.13,-0.05 0.03,-0.01 0.14,-0.06 0.46,-0.23 0.85,-0.63 1.35,-0.8 0.42,-0.14 0.65,-0.43 1.03,-0.64l1.53 -0.97c0.1,-0.07 0.12,-0.1 0.23,-0.19l0.78 -0.54c0.23,-0.16 0.34,-0.16 0.52,-0.31l2.02 -1.52c0.42,-0.3 0.54,-0.57 0.95,-0.58 0,0.54 0.02,0.63 -0.25,1.14 -0.11,0.2 -0.19,0.37 -0.31,0.53 -0.15,0.21 -0.27,0.28 -0.44,0.46 -0.2,0.22 -0.14,0.29 -0.3,0.54 -0.14,0.22 -0.24,0.26 -0.39,0.44 -0.31,0.39 -0.48,0.9 -0.74,1.27l-0.06 0.08c-0.01,0.01 -0.13,0.28 -0.13,0.29 -0.16,0.45 -0.02,0.87 0.42,1.04 0.4,0.16 0.75,-0.09 1.05,-0.2 0.18,-0.07 0.19,-0.01 0.35,-0.06 0.4,-0.12 -0.02,-0.21 0.57,-0.33 0.49,-0.09 0.79,-0.29 1.18,-0.55 0.35,0.23 0.35,0.44 0.57,0.75 0.29,0.4 0.53,0.24 1.02,0.22 0.92,-0.03 0.95,-0.07 1.67,-0.42 0.15,-0.07 0.41,-0.1 0.56,-0.01 0.39,0.25 -0.22,0.37 0.28,0.9 0.2,0.21 0.58,0.51 0.96,0.29 0.34,-0.2 -0.07,-0.16 0.41,-0.18 0.85,-0.03 0.43,-0.04 1.07,-0.29l0.95 -0.37c0.22,-0.12 0.13,-0.16 0.44,-0.26 0.66,-0.22 0.42,-0.27 0.86,-0.53 0.23,-0.14 0.55,-0.21 0.83,-0.42l0.84 -0.55c0.26,-0.14 0.39,-0.15 0.62,-0.35l0.42 -0.34c0.01,-0.01 0.03,-0.02 0.04,-0.03 0.06,-0.05 0.06,-0.04 0.12,-0.08 0.3,-0.19 0.57,-0.33 0.8,-0.59 0.28,-0.32 0.74,-0.49 1.05,-0.75l0.17 -0.11c0.05,0.21 0.03,0.11 0.14,0.28 -0.34,0.09 -0.29,0.22 -0.42,0.48 -0.19,0.39 -0.4,0.33 -0.61,0.71 -0.2,0.39 -0.57,0.65 -0.86,1.02 -0.16,0.21 -0.06,0.08 -0.24,0.24 -0.19,0.17 -0.46,0.75 -0.44,0.94 0.05,0.48 -0.21,0.11 -0.21,0.9 0.32,-0.03 0.45,-0.16 0.77,-0.21 0.4,-0.06 0.12,0.02 0.35,-0.14l0.12 -0.08c0.06,-0.04 0.08,-0.05 0.17,-0.11 0.38,-0.27 0.84,-0.42 1.22,-0.73 0.31,-0.26 0.69,-0.39 0.97,-0.7 0.26,-0.3 0.45,-0.27 0.76,-0.49l0.58 -0.39c0.22,-0.19 0.11,-0.3 0.46,-0.51 0.33,-0.2 0.51,-0.41 0.8,-0.65l2.29 -2.08c0.11,-0.14 0.32,-0.22 0.48,-0.28 0.23,-0.1 -0.09,-0 0.2,-0.08 -0.06,0.23 -0.09,0.2 -0.26,0.36 -0.21,0.2 -0.15,0.17 -0.3,0.4 -0.2,0.31 -0.81,0.96 -1.16,1.55l-1.76 2.97c-0.15,0.18 -0.21,0.19 -0.28,0.43 -0.2,0.76 0.42,0.24 0.74,0.11 0.02,-0.01 0.03,-0.01 0.05,-0.02l0.25 -0.1c0.01,-0.01 0.03,-0.02 0.04,-0.02 0.01,-0.01 0.03,-0.02 0.04,-0.03 0.01,-0.01 0.03,-0.02 0.04,-0.03l0.32 -0.16c0.02,-0.01 0.21,-0.12 0.22,-0.13 0.18,-0.12 0.15,-0.19 0.27,-0.36 0.16,-0.24 0.31,-0.26 0.45,-0.6 0.01,-0.03 0.08,-0.2 0.11,-0.24 0.09,-0.15 0.07,-0.07 0.15,-0.2 0.27,-0.42 0.14,-0.65 0.7,-1.31 0.23,-0.27 0.11,-0.13 0.24,-0.45l0.38 -0.59c0.01,-0.01 0.02,-0.03 0.03,-0.04 0.01,-0.02 0.05,-0.06 0.07,-0.07l0.39 -0.52c0.11,-0.13 0.22,-0.26 0.3,-0.39l0.15 -0.26c0.01,-0.01 0.02,-0.03 0.03,-0.04l0.37 -0.54c0.37,0.04 0.01,0.1 1.05,0.07 0.42,-0.01 0.25,-0.07 0.56,-0.13 0.07,-0.01 0.12,-0.01 0.19,-0.02 0.2,-0.02 0.23,-0.03 0.43,-0.05 0.4,-0.06 0.38,-0.14 0.64,-0.19l0.72 -0.13c0.27,-0.1 0.49,-0.07 0.71,-0.19 0.35,-0.19 0.35,-0.26 0.87,-0.12 0.27,0.07 0.12,0.06 0.4,-0 -0.21,0.31 -0.53,0.57 -0.85,0.75l-2.29 2.08c-0.36,0.33 -0.59,0.73 -0.94,1.07 -0.15,0.14 -0.24,0.24 -0.36,0.41 -0.1,0.14 -0.07,0.1 -0.16,0.26 -0.22,0.39 -0.47,0.59 -0.55,1.05 -0.05,0.29 0.01,0.1 -0.11,0.31 -0.24,0.47 -0.03,0.68 -0.03,1.29 1.15,-0.27 1.05,-0.13 1.95,-0.9l1.42 -0.94c0.36,-0.37 0.41,-0.27 0.86,-0.6 0.17,-0.13 0.41,-0.31 0.57,-0.4 0.19,-0.12 0.4,-0.18 0.61,-0.29 0.25,-0.14 0.36,-0.26 0.59,-0.38 0.14,-0.07 0.21,-0.08 0.33,-0.15l1.77 -1.15c0.14,-0.1 0.13,-0.13 0.27,-0.22 0.12,-0.08 0.21,-0.11 0.32,-0.17l0.21 -0.14c0.01,-0.01 0.03,-0.02 0.04,-0.03 0.01,-0.01 0.03,-0.02 0.04,-0.03 0.23,-0.18 0.33,-0.33 0.62,-0.35 -0.03,0.41 -0.13,0.69 -0.29,1.03l-0.76 1.73c-0.11,0.4 -0.52,0.56 -0.7,0.9 -0.05,0.09 -0.09,0.27 -0.16,0.39 -0.34,0.62 -1.04,1.38 -1.27,1.99l-0.43 0.54c-0.32,0.45 -0.82,1.2 -1.27,1.51 -0.21,0.14 -0.14,0.04 -0.33,0.15l-1.66 1.11c-0.31,0.24 -0.59,0.49 -0.94,0.66 -0.14,0.07 -0.09,0.04 -0.17,0.11l-0.82 0.56c-0.2,0.12 -0.49,0.28 -0.69,0.42l-1.21 0.94c-0.24,0.19 -0.42,0.23 -0.66,0.45 -0.32,0.31 -0.95,0.65 -1.33,0.89 -0.27,0.16 -0.24,0.29 -0.59,0.45 -0.47,0.23 -0.76,0.73 -1.21,1.01 -0.13,0.08 -0.25,0.09 -0.38,0.18 -0.1,0.07 -0.19,0.22 -0.25,0.3 -0.45,0.62 -1.08,1.02 -1.41,1.37 -0.31,0.32 -0.73,0.36 -0.74,0.92 -0.44,0 -0.43,0.1 -0.56,0.55l-0.43 1.03c-0.11,0.14 0.02,-0.15 -0.13,0.15 -0.2,0.41 0.13,0.01 -0.07,0.41 -0.17,0.35 -0.29,0.51 -0.17,0.96 0.23,0.88 1.26,0.69 1.82,0.28l0.4 -0.22c0.25,-0.14 0.09,-0.1 0.28,-0.28 0.1,-0.1 0.27,-0.18 0.38,-0.24 0.44,-0.22 0.72,-0.54 1.09,-0.86 0.34,-0.29 0.57,-0.59 0.97,-0.83 0.19,-0.12 0.27,-0.32 0.44,-0.46l0.74 -0.58c0.01,-0.01 0.02,-0.03 0.03,-0.04 0.01,-0.01 0.02,-0.03 0.03,-0.04l0.06 -0.08c0.19,-0.28 0.42,-0.33 0.69,-0.56 0.23,-0.19 0.13,-0.15 0.26,-0.36 0.21,-0.35 0.23,-0.11 0.46,-0.38 0.31,-0.36 -0.25,0.3 0.06,-0.08l0.41 -0.35c0.09,-0.07 0.07,-0.05 0.15,-0.13 0.48,-0.49 0.07,-0.19 0.68,-0.78l1.3 -1.34c0.14,-0.15 0.05,-0.06 0.15,-0.13 0.21,-0.14 0.21,-0.2 0.38,-0.39 0.01,-0.01 0.02,-0.02 0.03,-0.03l0.85 -1.02c0.4,-0.44 0.96,-0.74 1.24,-1.25 0.16,-0.28 0.57,-0.48 0.84,-0.9l0.49 -0.69c0.11,-0.17 0.51,-0.48 0.84,-0.97 0.25,-0.38 0.6,-0.51 0.9,-0.83l0.35 -0.27c0.32,-0.25 0.31,-0.33 0.86,-0.33 0.11,0.24 0.12,0.58 0.26,0.78 0.26,0.4 0.82,0.24 1.07,0.13l0.89 -0.36c0.29,-0.16 0.61,-0.17 0.88,-0.37l2.01 -1.33c0.25,-0.13 0.29,-0.18 0.46,-0.38l1.2 -0.88c0.14,-0.08 0.13,-0.08 0.24,-0.17l1.95 -1.45c0.66,-0.59 1.46,-1.03 2.11,-1.64l0.47 -0.36c0.1,-0.08 0.02,-0.02 0.11,-0.1 0.13,-0.1 0.07,-0.05 0.17,-0.11 0.34,-0.2 0.56,-0.57 0.93,-0.74l0.51 -0.32c0.13,-0.09 0.11,-0.08 0.23,-0.19l0.71 -0.54c0.21,-0.18 0.27,-0.18 0.54,-0.29 1,-0.38 0.67,0.05 1.37,0.05 0,0.34 0.1,0.53 0.1,0.78l-0.14 0.71 -0.94 1.69c-0.05,0.06 -0.08,0.07 -0.17,0.18l-0.43 0.54c-0.07,0.07 -0.11,0.13 -0.17,0.18l-0.75 0.57c-0.01,0.01 -0.03,0.02 -0.04,0.03l-2.2 1.48 -0.45 0.1c-0.32,0.05 -0.26,0 -0.47,0.16 -0.6,0.45 -0.32,0.03 -0.92,0.53l-1.8 1.39c-0.24,0.21 -0.58,0.31 -0.86,0.46 -0.09,0.05 -0.07,0.03 -0.17,0.11 -0.33,0.26 0.22,-0.21 -0.07,0.06 -0.13,0.12 -0.02,0.01 -0.1,0.11 -0.44,0.51 -0.53,0.22 -0.63,0.69 -0.13,0.67 0.33,0.25 0.66,0.1 0.57,-0.26 0.61,-0.41 0.86,-0.53 0.32,-0.16 0.67,-0.26 0.96,-0.5 0.28,-0.23 0.58,-0.32 0.91,-0.48 0.14,-0.07 0.16,-0.1 0.3,-0.19l0.74 -0.44c0.05,-0.02 0.12,-0.08 0.16,-0.11 0.1,-0.07 0.02,-0.02 0.12,-0.09l4.2 -2.74c0.17,-0.1 0.16,-0.07 0.28,-0.2 0.14,-0.14 0.04,-0.11 0.24,-0.25 -0.02,0.23 -0.47,1.54 -0.28,1.74 0.31,0.15 0.61,-0.04 0.84,-0.2 0.31,-0.21 -0,-0.06 0.4,-0.16 0.33,-0.08 0.53,-0.21 0.68,-0.5 0.06,-0.11 0.06,-0.1 0.09,-0.16 0.08,-0.2 0.36,-0.97 0.69,-1.27 0.22,-0.2 0.42,-0.54 0.59,-0.8l2.17 -2.9c0.01,-0.01 0.02,-0.02 0.03,-0.04 0.11,-0.12 0.14,-0.16 0.25,-0.3 0.42,-0.54 1.29,-0.43 1.96,-0.38l1.83 0.01c0.38,-0.1 0.09,-0.07 0.48,-0.03 0.61,0.07 0.6,-0.16 1.03,-0.2l0 0.14c-0.62,0.14 -1.05,0.56 -1.61,0.82l-1.96 1.23c-0.1,0.08 -0.13,0.11 -0.19,0.16l-0.08 0.06c-0.01,0.01 -0.13,0.08 -0.13,0.08 -0.44,0.27 -0.89,0.55 -1.26,0.89 -0.42,0.39 -0.92,0.7 -1.33,1.1l-1.09 1.06c-0.14,0.16 -0.33,0.43 -0.38,0.66 -0.07,0.3 -0.01,0.41 0.09,0.63l0.06 0.14c0.01,0.03 0.02,0.44 0.62,0.47 0.35,0.02 -0.01,-0.18 0.5,-0.15 0.44,0.03 0.83,-0 1.11,0.02l0.74 -0.11c0.08,-0.04 0.08,-0.08 0.21,-0.14l0.18 -0.08c0.08,-0.04 0.14,-0.09 0.21,-0.13 0.18,-0.11 0.25,-0.21 0.44,-0.26 0.26,-0.06 0.31,0.02 0.6,-0.09 0.31,-0.11 0.17,-0.13 0.63,-0.13 0.35,0.73 -0.17,0.6 0.14,1.25 0.3,0.06 0.42,-0.03 0.62,0.28 0.34,-0.18 0.2,-0.23 0.54,-0.07 0.89,0.42 0.95,0 1.63,-0.05l0.53 -0.06c0.12,-0.01 0.25,-0.06 0.37,-0.1l0.33 -0.1c0.75,-0.08 1,-0.6 1.95,-0.88 0.23,-0.07 0.47,-0.17 0.66,-0.31l0.57 -0.4c0.17,-0.13 0.4,-0.28 0.58,-0.39 0.32,-0.19 0.33,-0.06 0.63,-0.34 0.25,-0.23 0.33,-0.22 0.62,-0.36l0.81 -0.53c0.02,-0.01 0.03,-0.02 0.05,-0.03 0.01,-0.01 0.03,-0.02 0.04,-0.03 0.22,-0.12 0.26,-0.3 0.06,0.35 -0.08,0.25 -0.66,1.2 -0.65,1.65 0.01,0.47 0.16,0.34 0.57,0.39 1.2,0.15 0.58,-0.04 1.1,-0.04 0.41,0 0.3,-0.06 0.66,-0.26 0.01,-0.01 0.03,-0.02 0.05,-0.02l0.09 -0.04c0.27,-0.1 0.35,0.04 0.68,-0.15l1.45 -0.78c0.65,-0.35 0.6,-0.09 1.23,-0.71l0.29 -0.19c0.08,-0.05 0.2,-0.15 0.28,-0.21 0.24,-0.2 0.32,-0.24 0.57,-0.4l1.01 -0.93c0.18,-0.25 0.19,-0.37 0.51,-0.46l-1.13 1.86c-0.48,0.82 -0.22,0.46 -0.4,0.92 -0.08,0.21 -0.18,0.21 -0.34,0.43 -0.31,0.44 -0.66,0.86 -0.85,1.37 -0.07,0.2 -0.14,0.33 -0.27,0.5l-0.34 0.43c-0.18,0.33 -0.23,0.8 -0.47,1.06 -0.01,0.01 -0.02,0.02 -0.03,0.03 -0.03,0.03 -0.39,0.52 -0.49,0.9 0.26,0.23 0.35,0.23 0.64,0.09l0.32 -0.24c0.21,-0.17 -0,-0.05 0.29,-0.13l0.76 -0.42c0.34,-0.26 0.86,-0.32 0.96,-1.06 0.05,-0.38 -0.33,-0.66 0.19,-1.12 0.12,-0.1 0.06,-0.02 0.17,-0.18 0.31,-0.45 0.39,-1.05 0.74,-1.48 0.1,-0.12 0.01,0.01 0.1,-0.11l0.1 -0.18c0.13,-0.21 0.24,-0.27 0.36,-0.54 0.37,-0.84 1.15,-1.62 1.59,-2.44l0.43 -0.54c0.21,-0.19 0.73,-0.36 1,-0.39 0.49,-0.05 0.78,-0.03 1.3,-0.16 0.22,-0.05 0.41,-0.19 0.61,-0.16 0,0 0.26,0.08 0.27,0.08 0.39,0.06 0.23,-0.12 0.63,-0.08 0.22,0.02 0.05,0.06 0.33,0 0.94,-0.21 2.24,-0.25 2.59,-0.33 0.24,-0.05 0.24,-0.1 0.62,-0.14 0.23,-0.02 0.35,0.02 0.72,0.02 -0.07,0.25 -0.55,0.59 -0.8,0.79l-0.36 0.26c-0.01,0.01 -0.05,0.06 -0.07,0.07l-0.24 0.25c-0.23,0.27 -0.63,0.44 -0.9,0.69 -0.18,0.16 -0.18,0.27 -0.33,0.36 -0.2,0.11 -0.26,0.03 -0.48,0.14 -0.13,0.06 -0.03,0.03 -0.16,0.11l-1.94 1.05c-0.31,0.26 -0.64,0.17 -0.54,0.64 0.53,-0.12 0.85,-0.54 1.33,-0.69 0.29,-0.09 0.27,-0.07 0.47,0.06l-0.28 0.57c-0.05,0.19 -0,-0.05 -0.04,0.13 -0.16,0.85 0.02,0.81 0.19,1.51 0.06,0.25 0.05,0.34 0.23,0.53 0.37,0.4 0.8,0.22 1.23,0.3 0.32,0.06 0.37,-0.02 0.57,-0.09 0.25,-0.08 0.47,-0.01 0.73,-0.04 0.34,-0.04 0.22,-0.18 0.53,-0.13 0.43,0.07 0.99,-0.1 1.38,-0.26l0.74 -0.23c0.21,-0.11 0.01,-0.07 0.29,-0.13l2.35 -0.91c0.21,-0.11 0.39,-0.11 0.61,-0.22 0.2,-0.1 0.31,-0.18 0.53,-0.3l2.14 -1.12c0.21,-0.12 0.25,-0.21 0.45,-0.31 0.16,-0.08 0.16,-0.03 0.3,-0.11 0.19,-0.11 0.1,-0.18 0.32,-0.3 0.01,-0 0.13,-0.05 0.15,-0.06 1.01,-0.37 0.71,-0.53 1.24,-0.77 0.29,-0.13 0.3,-0.06 0.54,-0.29 0.26,-0.25 0.61,-0.59 0.99,-0.68 -0.09,0.19 -0.06,0.3 -0.16,0.54 -0.09,0.2 -0.18,0.29 -0.28,0.49l-0.72 1.43c-0.38,0.39 -0.63,0.9 -0.96,1.33l-0.27 0.43c-0.01,0.02 -0.03,0.08 -0.04,0.09 -0.01,0.01 -0.02,0.03 -0.02,0.05l-0.05 0.09c-0.09,0.13 -0.01,0 -0.09,0.11 -0.02,0.03 -0.07,0.09 -0.09,0.12 -0.22,0.36 -0.03,0.15 -0.35,0.41 -0.29,0.24 -0.14,0.17 -0.28,0.49 -0.18,0.41 -0.89,0.79 -1.17,1.26l-0.24 0.39c0.31,0.47 0.33,0.49 1.03,0.34 0.4,-0.09 0.7,-0.28 1.15,-0.38 0.49,-0.11 0.81,-0.29 1.25,-0.49 0.41,-0.19 1.2,-0.45 1.5,-0.66 0.25,-0.17 0.12,-0.05 0.47,-0.15 0.39,-0.12 0.23,-0.08 0.49,-0.28 0.23,-0.18 0.25,-0.03 0.54,-0.15 0.34,-0.14 0.81,-0.21 1.15,-0.38 0.2,-0.1 0.32,-0.13 0.54,-0.22 0.23,-0.09 0.37,-0.16 0.43,-0.4 -0.13,-0.06 -0.49,-0.06 -0.65,-0.02 -0.29,0.07 -0.39,0.24 -0.68,0.29l-1.12 0.27c-0.59,0.21 -1.2,0.34 -1.78,0.58 -0.25,0.1 -1.21,0.4 -1.46,0.41l0.51 -0.88c0.01,-0.02 0.04,-0.07 0.06,-0.08 0.29,-0.36 0.3,-0.24 0.58,-0.74l0.54 -0.71c0.01,-0.01 0.02,-0.03 0.03,-0.04l2.26 -3.43c0.19,-0.39 0.45,-0.77 0.55,-1.18 0.12,-0.49 -0.81,-0.72 -1.41,-0.43 -0.32,0.15 -0.33,0.28 -0.71,0.4 -0.82,0.26 -1.55,0.82 -2.21,1.33 -0.33,0.26 -0.46,0.23 -0.71,0.4 -0.32,0.23 -0.27,0.27 -0.69,0.49l-1.12 0.61c-0.46,0.15 -0.1,0.31 -0.66,0.4 -0.28,0.05 -0.46,0.38 -1.08,0.63l-2.17 1.02c-0.02,0.01 -0.13,0.07 -0.19,0.09l-2.35 0.57c-0.57,0.12 -1.02,0.05 -1.58,0.02 -0.4,-0.02 -0.58,-0.18 -0.76,-0.42 -0.33,-0.43 -0.23,-0.3 -0.22,-0.84l0.08 -0.97c0.49,-0.04 0.63,-0.28 1.02,-0.26 0.58,0.02 0.46,-0.21 0.92,-0.3 0.48,-0.1 0.53,-0.14 0.98,-0.34l0.92 -0.33c0.72,-0.2 1.24,-0.51 1.93,-0.78 0.42,-0.17 0.54,-0.08 0.96,-0.36 0.46,-0.31 0.9,-0.44 1.38,-0.63 0.35,-0.14 1.1,-0.64 1.29,-0.73 0.56,-0.24 0.5,-0.29 0.87,-0.45 0.53,-0.23 1.67,-0.93 2.06,-1.34 0.28,-0.29 0.64,-0.46 0.9,-0.76 0.33,-0.39 0.42,-0.63 0.17,-1.15 -0.52,-0.12 -1.23,-0.24 -1.76,-0.17 -0.26,0.03 -0.44,0.06 -0.67,0.1 -0.67,0.11 -2.64,0.91 -3.18,1.26 -0.46,0.29 -0.99,0.49 -1.44,0.78l-0.7 0.41c-0.27,0.14 -0.54,0.23 -0.76,0.42 -0.88,0.73 -0.93,0.29 -1.59,0.35 -0.4,0.04 -0.89,-0.05 -1.26,0.06 -0.53,0.15 -1.96,0.08 -2.54,0.19 -0.21,0.04 -0.43,0.07 -0.58,0.06 -0.41,-0.03 -0.81,-0.02 -1.26,0.09 -0.41,0.1 -0.16,0.04 -0.51,-0.02l-1.84 0.08 1.52 -2.16c0.13,-0.37 0.17,-0.24 0.5,-0.55l0.56 -0.76c0.11,-0.13 0.04,-0.02 0.15,-0.19 0.38,-0.57 0.87,-1.32 1.31,-1.81 0.35,-0.38 0.35,-0.57 0.54,-0.85 0.19,-0.27 0.11,-0.03 0.37,-0.25 0.14,-0.12 0.15,-0.25 0.31,-0.39 0.19,-0.17 0.18,-0.1 0.36,-0.34l0.79 -0.95c0.01,-0.01 0.02,-0.02 0.04,-0.03l1.1 -1.12c0.15,-0.15 0.19,-0.25 0.32,-0.38 0.13,-0.13 0.22,-0.17 0.38,-0.32 0.28,-0.28 0.59,-0.4 0.94,-0.59l0.21 -0.14c0.62,-0.48 0.56,0.13 1.09,-0.22 -0,0.21 -0.03,0.25 -0.07,0.42l0.32 -0.02c0.37,-0.1 0.1,-0.02 0.44,-0.25 0,-1.41 -0.84,-1 -1.33,-0.91 -0.96,0.17 -0.59,0.22 -1.21,0.45 -0.39,0.15 -0.59,0.32 -0.87,0.58 -0.27,0.24 -0.56,0.4 -0.8,0.65 -0.19,0.2 -0.17,0.29 -0.37,0.47 -0.18,0.16 -0.29,0.18 -0.44,0.39l-1.74 2.01c-0.14,0.15 -0.07,0.08 -0.18,0.24 -0.13,0.18 -0.03,0.08 -0.2,0.21 -0.26,0.2 -0.4,0.44 -0.61,0.71l-0.71 0.89c-0.03,0.05 -0.03,0.06 -0.08,0.12l-0.83 1.11c-0.01,0.01 -0.02,0.03 -0.03,0.04l-0.13 0.15c-0.45,0.52 -0.83,1.12 -1.24,1.67l-0.97 1.32c-0.16,0.22 -0.33,0.26 -0.56,0.34 -0.02,0.01 -0.08,0.03 -0.1,0.04 -0.3,0.1 -0.67,0.12 -0.92,0.33 -0.19,0.16 -0.13,-0.01 -0.14,0.35 -0.59,0 -0.35,0.25 -0.66,0.3l-2 0.23c-1.21,0.23 -0.21,0.03 -1.77,0.03 0.02,-0.02 0.06,-0.06 0.07,-0.08l0.32 -0.31c0.05,-0.05 0.08,-0.11 0.15,-0.18l1.38 -1.05c0.09,-0.06 0.03,-0.02 0.12,-0.09 0.04,-0.03 0.09,-0.07 0.15,-0.13 0.34,-0.28 0.64,-0.67 0.93,-1.02l0.06 -0.07c0.06,-0.06 0.02,-0.02 0.1,-0.11 0,-0 0.14,-0.12 0.15,-0.13 0.09,-0.08 0.1,-0.07 0.19,-0.16l0.6 -0.51c0.01,-0.01 0.02,-0.03 0.03,-0.04 0.01,-0.01 0.02,-0.03 0.03,-0.04l0.84 -0.89c0.1,-0.12 0.06,-0.11 0.16,-0.19l0.08 -0.06c0.27,-0.21 0.75,-0.86 0.82,-0.92 0.51,-0.45 0.7,-0.11 1.26,-1.03l0.46 -0.58c0.26,-0.27 0.32,-0.47 0.56,-0.75l0.06 -0.08c0.24,-0.28 0.39,-0.22 0.62,-0.56 0.11,-0.17 -0.01,-0.02 0.12,-0.16l0.9 -0.72c0.2,-0.12 0.23,0.05 0.31,-0.28 -0.2,-0.28 -0.55,-0.29 -0.83,-0.14 -0.53,0.29 -1.17,0.53 -1.64,0.93l-2.71 2.36c-0.27,0.23 -0.42,0.43 -0.67,0.65 -0.25,0.23 -0.47,0.31 -0.69,0.56l-3.2 3.19c-0.18,0.22 -0.26,0.4 -0.47,0.57l-0.24 0.25c-0.01,0.02 -0.05,0.07 -0.06,0.08 -0.07,0.08 -0.01,0.02 -0.1,0.1l-0.31 0.38c-0.11,0.24 -0.4,0.43 -0.56,0.69 -0.45,0.69 -0.53,0.54 -0.95,0.92 -0.12,0.11 -0.08,0.09 -0.12,0.16l-0.82 0.85c-0.16,0.19 -0.19,0.17 -0.39,0.24 -0.35,0.13 -0.18,0.09 -0.4,0.36l-0.31 0.24c-0.46,0.22 -0.92,0.74 -1.23,0.92l-1.05 0.61c-0.19,0.11 -0.14,0.14 -0.36,0.27 -0.1,0.06 -0.09,0.03 -0.19,0.09 -0.31,0.16 -0.46,0.39 -0.79,0.53l-1.07 0.53c-0.19,0.1 -0.29,0.12 -0.49,0.2 -0.59,0.25 -1.44,0.52 -2.06,0.51 -0.83,-0.02 -1.32,-0.33 -1.39,-1.18l0.35 -0.34c0.43,-0.56 1.16,-0.85 1.71,-1.27 0.17,-0.13 0.05,-0.04 0.21,-0.14l1.74 -1.24c0.13,-0.13 0.06,-0.07 0.23,-0.19 0.47,-0.33 0.69,-0.59 1.1,-0.91l1.57 -1.56c0.32,-0.54 0.47,-0.62 -0.28,-0.71 -0.66,-0.08 -1.25,0.49 -1.77,0.81 -1.3,0.81 -1.05,0.82 -1.87,1.46 -0.25,0.2 -0.18,0.11 -0.39,0.38 -0.43,0.55 -1.45,1.09 -1.99,1.69 -0.41,0.46 -0.78,0.43 -1.26,1.03l-0.18 0.16c-0.1,0.07 -0.11,0.06 -0.21,0.13 -0.01,0.01 -0.03,0.02 -0.04,0.03 -1.08,0.88 -1,0.86 -2.5,1.18 -0.39,0.08 -0.8,0.27 -1.26,0.21 -0.44,-0.06 -0.86,-0.15 -0.83,-0.56 0.08,-0.97 0.5,-0.8 1.22,-1.56 0.01,-0.01 0.02,-0.03 0.03,-0.04l1.28 -0.94c0.4,-0.33 0.59,-0.41 1.02,-0.65 0.2,-0.11 0.29,-0.17 0.46,-0.3 0.43,-0.33 1.05,-0.4 1.43,-0.79 0.26,-0.26 0.11,-0.13 0.47,-0.29 0.62,-0.28 1.07,-0.34 1.66,-0.57 0.36,-0.14 0.25,-0.1 0.17,-0.45 1.02,-0.02 0.82,-0.19 1.65,-0.43 0.23,-0.07 0.37,-0.09 0.43,-0.33 -0.44,0.01 -0.43,0.11 -0.92,0.02l-4.62 -0.36c-0.32,0.02 -1.18,-0.15 -1.81,-0.15 0.04,-0.54 0.49,-0.53 0.49,-1.11 0.12,-0 0.08,0.01 0.18,-0.03 0.18,-0.07 0.55,-0.42 0.67,-0.58 0.07,-0.09 0.05,-0.07 0.12,-0.16l0.07 -0.07c0.01,-0.01 0.02,-0.02 0.03,-0.03 0.34,-0.37 0.5,-0.78 0.81,-1.13 0.01,-0.02 0.05,-0.06 0.07,-0.07l0.68 -0.71c0.01,-0.01 0.02,-0.03 0.03,-0.04 0.42,-0.47 0.87,-0.83 1.15,-1.42 0.22,-0.46 0.15,-0.24 0.44,-0.53 0.49,-0.49 0.42,-0.26 0.84,-0.9l0.54 -0.78c0.35,-0.5 0.39,-0.15 0.98,-1.32 0.12,-0.23 0.2,-0.24 0.28,-0.49 0.11,-0.36 0.01,-0.53 -0.14,-0.76 -0.55,0 -0.47,-0 -0.87,0.21 -0.09,0.05 0.01,0 -0.15,0.05 -0.21,0.07 -0.27,0.12 -0.39,0.29l-0.38 0.66c-0.12,0.18 -0.03,0.03 -0.1,0.24 -0.17,0.48 -0.22,0.21 -0.36,0.61 -0.18,0.52 -0.53,0.76 -0.85,1.17l-0.7 0.97c-0.16,0.29 -0.39,0.35 -0.6,0.58 -0.36,0.41 -0.61,0.92 -1,1.3 -0.32,0.31 -0.46,0.69 -0.79,0.94l-1.31 1.6c-0.16,0.25 -0.39,0.37 -0.56,0.62 -0.22,0.32 -0.46,0.4 -0.49,0.7 -0.84,0 -1.73,-0.14 -2.54,-0.31 -0.34,-0.07 -0.46,-0.21 -0.8,-0.24 -0.07,-0.01 -0.13,-0 -0.2,-0.01l-0.22 -0.05c-0.18,-0.04 0.08,-0.12 -0.3,0.02 -0.01,0 -0.13,0.05 -0.15,0.06l-0.15 0.07c-0.19,0.08 -0.59,0.31 -0.45,0.59 0.09,0.2 0.12,0 0.28,0 0.24,0.01 0.26,0.22 0.78,0.22l0 0.14c-0.13,0.05 -0.13,0.1 -0.21,0.21z"/>
   <path fill="black" d="M17.66 18.35c0.06,-0.24 0.31,-0.37 0.71,-0.96 0.15,-0.23 0.28,-0.22 0.42,-0.42 0.24,-0.34 -0.1,-0.02 0.36,-0.48l0.45 -0.38c0.23,-0.17 0.06,-0.06 0.21,-0.21 0.27,-0.27 2.11,-1.46 1.26,-0.2 -0.01,0.01 -0.02,0.03 -0.03,0.04 -0.01,0.01 -0.02,0.03 -0.03,0.04 -0.02,0.03 -0.07,0.11 -0.08,0.13l-0.46 0.52c-0.01,0.01 -0.02,0.02 -0.03,0.03 -0.01,0.01 -0.03,0.02 -0.04,0.03 -0.52,0.52 -0.07,0.13 -0.64,0.47 -0.29,0.17 -0.17,0.24 -0.43,0.4 -0.18,0.12 -0.41,0.16 -0.6,0.3 -0.28,0.2 -0.66,0.58 -1.06,0.67zm-11.87 -2.57c0.39,-0.01 0.54,-0.27 1.14,-0.67l2.02 -1.39c0.1,-0.07 0.02,-0.02 0.13,-0.08l0.44 -0.18c0.13,-0.05 0.14,-0.05 0.24,-0.11l0.61 -0.43c0.12,-0.1 0.1,-0.07 0.23,-0.12 0.48,-0.18 0.37,-0.28 0.7,-0.34 0.47,-0.1 0.29,0.04 0.8,-0.25 0.22,-0.13 0.39,-0.17 0.64,-0.12l0 0.42c-0.3,0.07 -0.34,0.18 -0.51,0.4 -0.03,0.04 -0.06,0.08 -0.09,0.12l-0.14 0.14c-0.41,0.38 -0.07,0.26 -0.45,0.52 -0.79,0.54 -0.09,0.3 -0.75,0.71l-1.06 1.02c-0.52,0.63 -0.53,0.27 -0.89,0.85 -0.11,0.18 -0.26,0.32 -0.43,0.47l-1.68 1.44c-0.08,0.08 -0.04,0.03 -0.12,0.09 -0.08,0.05 -0,-0.02 -0.13,0.08 -0.1,0.08 -0.07,0.07 -0.14,0.14 -0.23,0.25 -0.31,0.22 -0.57,0.41 -0.21,0.16 -0.26,0.32 -0.45,0.52l-1.01 0.86c-0.64,0.33 -0.15,0.28 -0.61,0.57l-0.47 0.29c-0.13,0.08 -0.16,0.12 -0.29,0.19 -0.48,0.27 -1.32,0.74 -1.28,-0.12 0.03,-0.67 0.65,-1.54 1.05,-2.19 0.09,-0.15 0.12,-0.14 0.22,-0.27 0.11,-0.14 0.09,-0.15 0.21,-0.28l0.26 -0.23c0.12,-0.15 0.08,-0.24 0.45,-0.52 0.61,-0.48 0.92,-1.03 1.52,-1.4 0.24,-0.14 0.41,-0.21 0.44,-0.53zm0.56 3.89c-0.1,0.39 -0.28,0.31 -0.31,0.9 -0.02,0.44 -0.31,0.4 -0.31,1.04 0.49,0.13 -0.04,0.55 0.68,0.48 0.5,-0.04 0.92,-0.25 1.39,-0.42 0.36,-0.13 1.08,-0.28 1.12,-0.75 0.46,0 0.86,-0.23 1.19,-0.54 0.19,-0.18 0.1,-0.2 0.4,-0.22 0.12,0.5 -0.14,0.38 -0.14,0.83 0,0.24 0.14,0.11 0.14,0.35 0,0.25 -0.08,0.24 -0.14,0.49 0.51,0.27 0.99,0.33 1.54,0.31l1.6 -0.56c2.14,-0.8 1.26,-1.08 2.47,0.33 0.01,0.01 0.02,0.03 0.03,0.04 0.01,0.01 0.02,0.03 0.03,0.04l0.36 0.19c0.54,0.25 0.85,0.43 1.36,0.06 0.31,-0.23 0.2,-0.04 0.51,-0.18 0.49,-0.23 0.14,-0.34 0.79,-0.26 0.66,0.08 1.85,-0.37 2.31,-0.88 0.19,-0.2 0.15,-0.2 0.09,-0.46 -0.32,0.01 -0.3,0.05 -0.54,0.16 -0.43,0.2 -0.3,0.05 -0.57,0.05 -0.2,0 -0.24,0.06 -0.46,0.1 -0.19,0.03 -0.26,0 -0.36,0 -0.25,-0 -0.6,0.03 -0.94,-0.08 -0.44,-0.14 -0.39,-0.29 -0.67,-0.51 -0.31,-0.24 -0.31,-0.35 -0.35,-0.83l0.49 -0.28c0.01,-0.01 0.03,-0.02 0.04,-0.03l0.64 -0.54c0.12,-0.08 0.32,-0.14 0.45,-0.25l0.56 -0.41c0.14,-0.09 0.07,-0.04 0.2,-0.15l0.76 -0.62c0.12,-0.11 0.19,-0.22 0.31,-0.31 0.28,-0.22 0.2,-0.01 0.4,-0.3 0.27,-0.38 0.15,-0.15 0.76,-0.63 0.07,-0.06 0.31,-0.22 0.36,-0.27l0.28 -0.41c0.39,-0.43 0.23,-0.41 0.23,-1.02 -0.25,-0.13 -0.33,-0.23 -0.68,-0.3 -0.54,-0.11 -1.77,0.4 -2.18,0.77 -0.25,0.23 -0.6,0.41 -0.81,0.65 -0.3,0.34 -0.55,0.4 -0.82,0.77 -0.22,0.3 -0.86,1.11 -1.17,1.33 -0.78,0.56 -0.29,0.42 -0.75,0.77 -0.95,0.74 -0.27,1.32 -1.41,1.64 -0.28,0.08 -0.47,0.18 -0.76,0.28 -0.14,0.05 -0.24,0.08 -0.37,0.13 -0.32,0.13 -0.11,0.07 -0.37,0.08 -0.42,0.03 -1.14,0.21 -1.33,-0.41 -0.08,-0.28 0.12,-0.52 0.26,-0.69l0.88 -1.07c0.14,-0.12 0.11,-0.03 0.3,-0.19l0.49 -0.48c0.01,-0.01 0.03,-0.02 0.04,-0.03 0.12,-0.11 0.15,-0.16 0.28,-0.27 0.55,-0.48 0.75,-0.53 0.87,-0.65l0.64 -0.61c0.71,-0.51 0.33,-0.43 0.67,-0.65 0.51,-0.32 0.65,-0.27 1.07,-0.8 0.15,-0.19 0.38,-0.3 0.56,-0.48 0.01,-0.01 0.02,-0.02 0.03,-0.03 0.01,-0.01 0.02,-0.03 0.03,-0.04 0.2,-0.21 0.33,-0.33 0.58,-0.47 0.26,-0.14 0.46,-0.19 0.54,-0.5 -0.74,-0.36 -1.17,0.07 -1.78,0.37l-0.36 0.27c-0.28,0.27 -0.68,0.48 -0.98,0.75l-0.47 0.43c-0.01,0.01 -0.03,0.02 -0.04,0.03 -0.01,0.01 -0.03,0.02 -0.04,0.03 -0.01,0.01 -0.05,0.06 -0.07,0.07l-0.62 0.56c-0.23,0.28 -0.7,0.44 -1.02,0.78l-0.78 0.95c-0.01,0.01 -0.11,0.16 -0.12,0.16l-0.52 0.31c-0.01,0.01 -0.03,0.02 -0.04,0.03 -0.01,0.01 -0.03,0.02 -0.04,0.03l-0.39 0.3c-1.13,0.94 -1.19,0.78 -2.36,1.53 -0.1,0.06 -0.29,0.16 -0.42,0.21l-0.79 0.39c-0.29,0.15 -0.63,0.18 -0.88,0.3 -0.42,-0.63 -0.34,-0.58 0.18,-1.63 0.16,-0.31 0.86,-1.12 1.11,-1.39l1.33 -1.52c0.01,-0.01 0.02,-0.03 0.03,-0.04l0.87 -0.79c0.08,-0.06 0.02,-0.01 0.11,-0.1l0.2 -0.21c0.35,-0.27 0.31,-0.33 0.58,-0.6 0.16,-0.16 0.28,-0.19 0.47,-0.37 0.24,-0.24 0.56,-0.7 0.88,-0.78l-0.12 0.3c-0.06,0.13 -0.12,0.22 -0.17,0.32 -0.03,0.07 -0.09,0.22 -0.12,0.3 -0.01,0.02 -0.01,0.03 -0.02,0.05 -0.27,0.71 -0.89,1.1 -0.75,1.4 0.33,-0.18 0.11,-0.16 0.32,-0.38l0.16 -0.12c0.26,-0.23 0.3,-0.68 0.57,-0.89 0.01,-0.01 0.12,-0.07 0.13,-0.08l0.16 -0.19c0.01,-0.01 0.02,-0.03 0.03,-0.04 0.01,-0.01 0.02,-0.03 0.03,-0.04 0.44,-0.58 0.34,-0.32 0.28,-1.04 0.33,-0.09 0.29,-0.16 0.31,-0.33 0.03,-0.35 -0.07,-0.18 0.23,-0.46 0.31,-0.29 0.37,-0.48 0.75,-0.71 0.26,-0.16 0.52,-0.49 0.77,-0.69 0.26,-0.22 0.44,-0.59 0.71,-0.82 0.23,-0.18 0.16,-0.04 0.39,-0.31 0.41,-0.49 0.91,-0.84 1.33,-1.31 0.01,-0.01 0.02,-0.03 0.03,-0.04 0.01,-0.01 0.02,-0.03 0.03,-0.04 0.06,-0.06 0.05,-0.05 0.1,-0.11 0.04,-0.04 0.12,-0.13 0.16,-0.18 0.09,-0.11 0.08,-0.12 0.2,-0.22 0.42,-0.37 0.73,-0.3 0.74,-0.78 -0.79,0.07 -0.37,0.18 -0.56,-0.28 -0.3,0.07 -0.23,0.08 -0.44,0.26 -0.25,0.21 -0.62,0.4 -0.84,0.61 -0.13,0.13 0.02,0.02 -0.19,0.15 -0.32,0.19 -0.43,0.22 -0.62,0.56l-0.09 0.14c-0.16,0.14 -0.2,0.06 -0.54,0.47 -0.22,0.27 -0.23,0.17 -0.41,0.35 -0.33,0.33 -0.2,0.32 -0.47,0.57 -0.21,0.2 -0.31,0.37 -0.56,0.55l-0.31 0.25c-0.01,0.01 -0.02,0.03 -0.03,0.04 -0.86,1.02 -0.74,0.72 -2.2,0.92l-0.55 0.15c-0.17,0.05 -0.33,0.13 -0.55,0.22 -0.21,0.09 -0.3,0.17 -0.46,0.24 -0.58,0.25 -1.09,0.6 -1.67,0.9 -0.56,0.29 -1.13,0.64 -1.61,1.02l-0.85 0.54c-0.42,0.26 -0.67,0.48 -0.99,0.81 -0.16,0.16 -0.06,0.07 -0.31,0.18l-0.34 0.22c-0.01,0.01 -0.02,0.03 -0.03,0.04 -0.01,0.01 -0.02,0.03 -0.03,0.04l-0.18 0.17c-0.13,0.1 -0.07,0.02 -0.2,0.14 -0.32,0.3 0,0.14 -0.63,0.62l-0.29 0.26c-0.11,0.08 -0.12,0.06 -0.25,0.16 -0.65,0.51 -0.01,0.34 -0.65,0.66 -0.01,0.01 -0.03,0.02 -0.05,0.02 -0.01,0.01 -0.03,0.02 -0.04,0.03 -0.28,0.18 -0.73,0.74 -0.99,1.03 -0.34,0.38 -0.62,0.87 -0.94,1.29l-1.02 1.97c-0.1,0.5 -0.03,0.8 0.22,1.15l0.12 0.16c0.19,0.19 0.57,0.28 0.78,0.22 0.21,-0.05 0.27,-0.14 0.44,-0.25l3.04 -2.16c0.3,-0.18 0.43,-0.35 0.64,-0.61l0.52 -0.45c0.26,-0.22 0.11,-0.22 0.55,-0.22z"/>
   <path fill="black" d="M21.27 10.64c0.15,0.1 0.07,0.08 0.23,0.11 0.28,0.06 -0.03,-0.1 0.55,0.15 0.28,0.12 0.07,-0.1 0.26,0.16 0.38,-0.28 -0.11,-0.1 0.41,-0.22l0.5 -0.13c0.54,-0.08 1.87,-0.01 1.91,-0.65 0.02,-0.23 -0.08,-0.25 -0.26,-0.32 -0.23,-0.1 -0.25,-0.08 -0.46,-0.23 -0.15,-0.11 -0.23,-0.17 -0.37,-0.25 -1.17,-0.63 -1.61,0.29 -1.72,0.41 -0.16,0.17 -0.24,0.08 -0.45,0.25 -0.12,0.1 -0.17,0.17 -0.33,0.29 -0.19,0.14 -0.24,0.16 -0.27,0.43z"/>
   <path fill="#8D8D8E" d="M71.87 27.79c0,0.59 -0.05,0.96 0.33,1.47 0.03,0.04 0.06,0.07 0.09,0.12l0.1 0.11c0.01,0.01 0.02,0.02 0.04,0.03 0.92,0.87 2.63,0.36 2.63,0l0 -1.6 -1.25 0 0 0.35 0.83 0c0,1.34 0.15,1.25 -0.72,1.36 -0.32,0.04 -0.66,-0.04 -0.9,-0.16 -1.21,-0.57 -1.1,-2.94 0.72,-2.94 0.49,0 0.69,0.23 0.97,0.42l0.29 -0.26c-0.75,-1 -3.14,-0.49 -3.14,1.1z"/>
   <path fill="#8D8D8E" d="M125.03 27.86l-0.69 0 0 -1.25c0.77,0 1.46,-0.11 1.46,0.76 0,0.3 -0.43,0.49 -0.76,0.49zm-1.04 2.01l0.35 0 0 -1.67c0.63,0 0.55,-0.05 0.77,0.34 0.08,0.14 0.16,0.28 0.26,0.44 0.19,0.32 0.33,0.56 0.5,0.89l0.42 0c-0.07,-0.3 -0.77,-1.36 -0.97,-1.67 1.44,-0.34 1.1,-1.94 -0.35,-1.94l-0.97 0 0 3.61z"/>
   <path fill="#8D8D8E" d="M132.25 28.06l0 1.8 0.35 0c0,-0.48 -0.07,-1.41 0.14,-1.74 0.23,-0.36 1.04,-0.48 1.04,0.21l0 1.53 0.42 0c0,-1.39 -0.2,-2.01 0.69,-2.01 0.69,0 0.49,0.92 0.49,2.01 0.51,0 0.42,0.09 0.42,-1.04 0,-1.25 -0.4,-1.32 -1.11,-1.32 -0.44,0 -0.34,0.25 -0.69,0.35 -0.11,-0.42 -0.44,-0.35 -0.9,-0.35 -0.12,0 -0.39,0.21 -0.49,0.28 -0.02,-0.2 0,-0.28 -0.21,-0.28 -0.35,0 -0.14,0.27 -0.14,0.56z"/>
   <path fill="black" d="M45.28 9.04c-0.23,0 -0.62,0.17 -0.76,0.28 -0.21,0.16 -0.3,0.36 -0.32,0.38 -0.28,0.28 -0.41,0.1 -0.7,0.42 -0.08,0.09 -0.03,0.01 -0.09,0.12 -0.26,0.51 0.27,0.27 0.48,0.32 0.36,0.09 1,0.52 1.87,0.07 0.24,-0.13 0.24,-0.15 0.3,-0.46 0.05,-0.27 0.14,-0.37 0.04,-0.62 -0.3,-0.8 -0.46,-0.49 -0.51,-0.48 -0.41,0.07 0.05,-0.02 -0.32,-0.02z"/>
   <path fill="#8D8D8E" d="M90.4 26.26l0 3.61 0.42 0c0,-1.44 -0.2,-2.01 0.9,-2.01 0.56,0 0.42,1.52 0.42,2.01l0.35 0c0,-0.48 0.21,-2.36 -0.62,-2.36 -0.9,0 -0.58,-0.03 -1.04,0.28 0,-0.65 0.14,-1.74 -0.21,-1.74 -0.16,0 -0.21,0.05 -0.21,0.21z"/>
   <path fill="#8D8D8E" d="M113.51 26.26l0 3.61 0.42 0c0,-1.44 -0.2,-2.01 0.9,-2.01 0.56,0 0.42,1.52 0.42,2.01l0.35 0c0,-0.49 0.19,-2.36 -0.62,-2.36 -0.9,0 -0.58,-0.03 -1.04,0.28 0,-0.32 -0,-0.65 0,-0.97 0,-0.33 0.1,-0.76 -0.21,-0.76 -0.16,0 -0.21,0.05 -0.21,0.21z"/>
   <path fill="#8D8D8E" d="M81.72 27.86l0.21 0c0.37,0 0.6,0.27 0.62,0.62l-1.53 0c0.03,-0.35 0.32,-0.62 0.69,-0.62zm-1.11 0.83c0,1.49 1.99,1.55 2.22,0.69l-0.15 -0.2c-0.22,0.07 -0.34,0.41 -0.82,0.41 -0.5,0 -0.82,-0.27 -0.83,-0.76l1.87 0 0 -0.49c0,-0.36 -0.47,-0.83 -0.83,-0.83 -0.45,0 -0.81,-0.06 -1.16,0.37 -0.11,0.14 -0.3,0.6 -0.3,0.81z"/>
   <path fill="#8D8D8E" d="M76.79 27.86c0.68,0 0.69,0.19 0.9,0.62l-1.6 0c0.07,-0.16 0.19,-0.62 0.69,-0.62zm-1.04 0.76c0,1.53 1.61,1.68 2.22,0.76l-0.22 -0.19c-0.24,0.15 -0.38,0.4 -0.82,0.4 -0.51,0 -0.73,-0.34 -0.83,-0.76l1.94 0c0,-1.06 -0.38,-1.32 -1.32,-1.32 -0.51,0 -0.97,0.57 -0.97,1.11z"/>
   <path fill="#8D8D8E" d="M127.67 29.59c-0.86,0 -0.64,-0.83 0.07,-0.83l0.62 0c0,0.44 -0.13,0.83 -0.69,0.83zm-0.83 -1.74c0.3,0.44 0.12,0 1.04,0 0.37,0 0.48,0.19 0.49,0.56 -0.41,0 -1.6,0.05 -1.6,0.62 0,0.46 0.02,0.9 0.83,0.9 0.38,0 0.54,-0.13 0.76,-0.28l0 0.21 0.42 0c-0.16,-0.33 -0.06,-1.01 -0.07,-1.46 -0.02,-1.34 -1.6,-0.93 -1.88,-0.55z"/>
   <path fill="#8D8D8E" d="M94.01 29.59c-0.4,0 -0.76,-0.31 -0.43,-0.63 0.24,-0.24 0.74,-0.2 1.2,-0.2 -0.04,0.49 -0.25,0.83 -0.76,0.83zm-0.76 -1.74l0.15 0.2c0.33,-0.08 1.15,-0.6 1.38,0.36 -2.47,0 -1.78,1.53 -0.83,1.53 0.51,0 0.49,-0.12 0.83,-0.35l0 0.28 0.35 0c-0.01,-0.43 -0.07,-0.61 -0.07,-1.46 0.01,-0.94 -0.49,-0.9 -1.18,-0.9 -0.29,0 -0.51,0.17 -0.62,0.35z"/>
   <path fill="#8D8D8E" d="M129.4 27.72c0,1.05 -0.21,2.22 0.9,2.22 0.56,0 0.65,-0.28 0.83,-0.42l0 0.35 0.35 0 -0.07 -2.36c-0.55,0.01 -0.3,0.15 -0.34,1.25 -0.04,0.97 -1.32,1.33 -1.32,-0.07l0 -1.18c-0.22,0 -0.35,-0.02 -0.35,0.21z"/>
   <path fill="#8D8D8E" d="M101.71 29.18c0,0.58 0.48,0.76 0.97,0.76 0.33,0 0.5,-0.22 0.69,-0.35l0 0.28c0.64,0 0.35,-0.1 0.35,-0.56l0 -1.8 -0.35 0c0,0.87 0.19,2.08 -0.76,2.08 -0.75,0 -0.56,-1.05 -0.56,-2.08l-0.35 0 0 1.67z"/>
   <path fill="#8D8D8E" d="M95.95 27.02l0 0.49 -0.42 0 0 0.35 0.42 0 0 1.8c0,0.25 0.14,0.21 0.42,0.21l0 -2.01c0.61,0 0.44,0.02 0.56,-0.14 -0.07,-0.24 -0,-0.21 -0.56,-0.21 0,-0.59 -0.05,-0.62 0.07,-1.11 0.26,-0.06 0.13,-0.03 0.4,-0.05 0.12,-0.01 0.22,0.1 0.22,-0.16 0,-0.37 -1.11,-0.41 -1.11,0.83z"/>
   <path fill="#8D8D8E" d="M85.75 28.13c0,0.86 0.97,0.42 1.39,1.04 -0.15,0.57 -0.95,0.51 -1.11,0.07 -0.3,0.02 -0.13,-0.01 -0.35,0.14 0.2,0.76 1.8,0.8 1.8,-0.21 0,-0.83 -1.03,-0.43 -1.39,-0.97 0.11,-0.4 0.29,-0.35 0.62,-0.35 0.25,0 0.15,0.19 0.49,0.28 0.09,-0.08 0.09,-0.08 0.21,-0.14 -0.19,-0.72 -1.67,-0.67 -1.67,0.14z"/>
   <path fill="#8D8D8E" d="M78.46 28.13c0,1 1.32,0.37 1.32,1.11 0,0.28 -0.43,0.51 -0.94,0.17 -0.29,-0.19 -0.08,-0.19 -0.45,-0.1 0.06,0.73 1.13,0.72 1.5,0.46 0.12,-0.09 0.3,-0.36 0.3,-0.53 0,-0.96 -1.39,-0.53 -1.39,-1.11 0,-0.31 0.4,-0.28 0.62,-0.28 0.17,0 0.26,0.17 0.42,0.28l0.28 -0.14c-0.08,-0.16 -0.05,-0.16 -0.19,-0.29 -0.4,-0.36 -1.47,-0.29 -1.47,0.43z"/>
   <path fill="black" d="M30.43 12.17c0.21,0.06 0.15,-0 0.21,0.21 -0.29,-0.08 -0.11,-0.03 -0.21,-0.21zm-0.28 -0.14l0.21 0 0 0.21c-0.37,-0.19 -0.06,-0.01 -0.21,-0.21zm-1.46 -0.56l0 0.21 0.75 0.2c0.29,0.13 0.04,-0.22 0.42,0.36 0.13,0.19 -0.09,0.03 0.22,0.19l0.62 0.21c0.02,-0.21 -0,-0.13 0.07,-0.28 0.16,0.07 0.03,-0.02 0.12,0.08l0.08 0.12c0.04,-0.16 0.05,-0.16 0.07,-0.35 0.22,0.05 0.2,0.09 0.42,0.14 0.12,-0.23 0.13,-0.13 0.21,-0.35 -0.35,0 -0.47,0.1 -0.69,0l-0.54 -0.3c-0.67,-0.36 -0.64,-1.15 -1.38,-0.64 -0.39,0.26 0.06,0.27 -0.38,0.38z"/>
   <path fill="#8D8D8E" d="M100.39 26.82l0 0.69c-0.49,0 -0.48,-0.03 -0.49,0.35l0.49 0 0 2.01 0.35 0 0 -1.8c0,-0.26 0.16,-0.21 0.56,-0.21l0 -0.35 -0.56 0c0,-0.4 -0.03,-0.77 0.14,-1.11 0.45,-0.11 0.13,-0.1 0.56,0 0.02,-0.19 0.03,-0.19 0.07,-0.35 -0.57,-0.13 -1.11,-0.05 -1.11,0.76z"/>
   <path fill="#8D8D8E" d="M111.01 28.55c0,1.8 2.02,1.61 2.08,0.83 -0.54,-0.13 -0.42,0.21 -0.83,0.21 -1.12,0 -1.33,-1.74 0.07,-1.74 0.4,0 0.3,0.19 0.62,0.28l0.12 -0.15c-0.17,-0.8 -2.07,-0.62 -2.07,0.57z"/>
   <path fill="#8D8D8E" d="M87.9 28.55c0,1.78 2.02,1.62 2.08,0.83 -0.56,-0.13 -0.37,0.21 -0.76,0.21 -1.24,0 -1.37,-1.74 0,-1.74 0.4,0 0.3,0.19 0.62,0.28l0.12 -0.15c-0.17,-0.81 -2.07,-0.61 -2.07,0.57z"/>
   <path fill="#8D8D8E" d="M107.54 29.87l2.01 0c-0,-0.22 0.02,-0.35 -0.21,-0.35l-1.46 0 0 -3.26 -0.35 0 0 3.61z"/>
   <path fill="#8D8D8E" d="M116.49 27.51l-0.49 0 0 0.35 0.49 0c0,1.61 -0.24,2.31 1.04,2.01 -0.01,-0.52 -0.09,-0.28 -0.42,-0.28 -0.41,0 -0.28,-0.93 -0.28,-1.53 0,-0.28 0.2,-0.21 0.69,-0.21 -0.01,-0.4 0.02,-0.35 -0.69,-0.35l0 -0.62 -0.35 0 0 0.62z"/>
   <path fill="#8D8D8E" d="M97.48 27.51l-0.49 0 0 0.35 0.49 0c0,1.61 -0.24,2.31 1.04,2.01 -0.01,-0.52 -0.09,-0.28 -0.42,-0.28 -0.44,0 -0.28,-0.85 -0.28,-1.74l0.69 0c-0.01,-0.4 0.02,-0.35 -0.69,-0.35l0 -0.62 -0.35 0 0 0.62z"/>
   <path fill="#8D8D8E" d="M83.53 26.26l0 3.61 0.42 0 0 -3.82 -0.21 0c-0.16,0 -0.21,0.05 -0.21,0.21z"/>
   <path fill="#8D8D8E" d="M120.38 27.23l0 0.97 -1.11 0 0 0.28 1.11 0 0 1.18c0.44,-0.01 0.35,0.04 0.35,-1.18l1.11 0 0 -0.28 -1.11 0c0,-0.87 0.1,-1.01 -0.14,-1.18 -0.15,0.04 -0.21,0.02 -0.21,0.21z"/>
   <polygon fill="#8D8D8E" points="84.78,29.87 85.12,29.87 85.12,26.05 84.78,26.05 "/>
   <path fill="#8D8D8E" d="M104.49 29.87l0.42 0c0,-1.66 -0.19,-2.01 0.83,-2.01 0.01,-0.27 -0.02,-0.16 0.07,-0.35 -0.9,0 -0.46,0 -0.97,0.35l0 -0.35 -0.35 0 0 2.36z"/>
   <path fill="#131313" d="M28.14 12.58c0.51,0.04 0.36,0.28 0.78,0.48 0.3,0.14 0.09,0.03 0.27,0.03 0.25,0 0.43,0.14 0.63,0.17 0.49,0.07 0.17,-0.15 0.61,0.08 -0.02,-0.23 0,-0.21 -0.18,-0.31 -0.19,-0.11 -0.2,-0.05 -0.45,-0.11 -0.36,-0.08 -0.89,-0.24 -1.17,-0.5 -0.11,-0.11 -0.15,-0.15 -0.22,-0.27 -0.15,-0.24 0.02,-0.19 -0.28,-0.27l0 0.69z"/>
   <path fill="#8D8D8E" d="M109.97 27.72l0 2.15 0.35 0 0 -2.36c-0.22,0 -0.35,-0.02 -0.35,0.21z"/>
   <path fill="#8D8D8E" d="M101.99 26.4c0,0.6 0.27,0.64 0.56,0.21 -0.1,-0.18 -0.07,-0.4 -0.56,-0.21z"/>
   <path fill="#8D8D8E" d="M102.89 26.6c0.29,0.44 0.56,0.39 0.56,-0.21l-0.42 -0.07 -0.14 0.28z"/>
   <path fill="#8D8D8E" d="M109.9 26.61c0,0.32 0.3,0.25 0.49,0.21 0,-0.34 0.03,-0.42 -0.28,-0.42 -0.16,0 -0.21,0.05 -0.21,0.21z"/>
   <path fill="#242424" d="M96.58 4.67c0.27,0.07 0.16,0.14 0.56,-0.07 -0.06,-0.23 -0.1,-0.23 -0.28,-0.35 -0.09,0.14 -0.18,0.28 -0.28,0.42z"/>
   <path fill="#3C3C3C" d="M32.17 12.38c-0,-0 0.06,-0.01 -0.13,-0.22 -0.18,-0.19 0.02,-0.1 -0.29,-0.13 0.07,0.29 0.14,0.47 0.42,0.35z"/>
   <path fill="#242424" d="M97.13 4.25c0.22,0.1 0.35,0.05 0.42,-0.21 -0.24,-0.11 -0.27,-0.01 -0.42,0.21z"/>
   <path fill="#6D6D6D" d="M30.92 13.21c-0.06,-0.24 -0.03,-0.16 -0.21,-0.28 -0.01,0.01 -0.04,0.01 -0.04,0.03 -0.02,0.09 -0.15,0.05 -0.07,0.22 0.08,0.17 0.13,0.07 0.32,0.03z"/>
   <path fill="#7E7E7E" d="M43.62 20.15l0.21 0c-0.11,-0.15 -0.01,-0.09 -0.21,-0.14l0 0.14z"/>
   <path fill="#8D8D8E" d="M31.33 12.58c0,0.08 0.15,0.16 0.11,0 -0.04,-0.16 0.18,-0 -0.03,-0.02 -0.09,-0.01 -0.08,-0.12 -0.08,0.02z"/>
   <path fill="#7E7E7E" d="M126.7 14.6c0,0.17 0.11,0.02 0.04,0 -0,-0 -0.04,-0.2 -0.04,0z"/>
   <path fill="#7E7E7E" d="M12.32 15.36c0,0.17 0.11,0.02 0.04,0 -0,-0 -0.04,-0.2 -0.04,0z"/>
   <path fill="#B3B4B4" d="M64.65 42.37c0,0.17 0.11,0.02 0.04,0 -0,-0 -0.04,-0.2 -0.04,0z"/>
   <path fill="#8D8D8E" d="M48.82 13.97l0.02 -0.02c-0,0 -0.03,0.01 -0.02,0.02z"/>
   <path fill="#8D8D8E" d="M9.89 19.04l0.02 -0.02c-0,0 -0.03,0.01 -0.02,0.02z"/>
  </g>
 </g>
</svg>
