<svg xmlns="http://www.w3.org/2000/svg" xmlns:xlink="http://www.w3.org/1999/xlink" width="204.369" height="153" viewBox="0 0 204.369 153"><defs><style>.a{fill:url(#a);}.b{fill:url(#b);}.c{fill:url(#c);}</style><linearGradient id="a" x1="0.499" x2="0.499" y2="1.001" gradientUnits="objectBoundingBox"><stop offset="0" stop-color="#335cea"/><stop offset="1" stop-color="#00d29b"/></linearGradient><linearGradient id="b" x1="-3.729" y1="0" x2="-3.729" y2="1" xlink:href="#a"/><linearGradient id="c" x1="0.5" y1="0" x2="0.5" y2="1" xlink:href="#a"/></defs><g transform="translate(0.037)"><g transform="translate(-0.037)"><path class="a" d="M108.865,109.6,65.523,123.729a2.553,2.553,0,0,1-3.274-2.514V93.39H110.7v13.7A2.619,2.619,0,0,1,108.865,109.6Z" transform="translate(-21.469 -32.246)"/><path class="b" d="M172.39,109.6l43.342,14.129a2.56,2.56,0,0,0,3.306-2.514V93.39H170.59v13.7A2.619,2.619,0,0,0,172.39,109.6Z" transform="translate(-58.878 -32.246)"/><path class="c" d="M180.536,41.712,121.94,0l-58.6,41.718a2.684,2.684,0,0,0-1.126,2.187V77.426L121.94,37.09l59.736,40.337V43.918A2.7,2.7,0,0,0,180.536,41.712Z" transform="translate(-21.456)"/><path d="M22.568,200.574a1.552,1.552,0,0,1-1.473-1.061l-1.886-5.65H8.4l-2.154,5.709a1.565,1.565,0,0,1-1.453,1H1.519a1.558,1.558,0,0,1-1.453-2.115l11.4-29.554a1.565,1.565,0,0,1,1.453-1h2.828a1.552,1.552,0,0,1,1.467,1.041L27.518,198.5a1.558,1.558,0,0,1-1.467,2.069Zm-5.316-12.695-3.11-9.434-3.516,9.408Z" transform="translate(0.037 -57.977)"/><path d="M22.832,200.323a1.067,1.067,0,0,1-1-.72l-2-6H8.323l-2.278,6.063a1.067,1.067,0,0,1-.989.655H1.783a1.061,1.061,0,0,1-.989-1.434l11.425-29.534a1.061,1.061,0,0,1,.989-.655h2.828a1.048,1.048,0,0,1,1,.707l10.305,29.541a1.061,1.061,0,0,1-.137.956,1.041,1.041,0,0,1-.858.445Zm-4.629-11.7-3.771-11.405L10.17,188.623Z" transform="translate(-0.227 -58.25)"/><path d="M53.218,205.527a12.366,12.366,0,1,1,5.84-23.124,1.552,1.552,0,0,1,.655,1.964l-1.061,2.409a1.552,1.552,0,0,1-.982.864,1.485,1.485,0,0,1-.439.065,1.558,1.558,0,0,1-.864-.262,6.914,6.914,0,0,0-3.444-.923c-3.994,0-6.089,3.339-6.089,6.639,0,3.968,2.481,6.639,6.174,6.639a7.26,7.26,0,0,0,3.418-1.041,1.545,1.545,0,0,1,.93-.314h.255a1.552,1.552,0,0,1,1.034.655l1.48,2.193a1.565,1.565,0,0,1-.419,2.161A11.13,11.13,0,0,1,53.218,205.527Z" transform="translate(-14.055 -62.426)"/><path d="M53.477,205.3A11.865,11.865,0,1,1,59.068,183.1a1.048,1.048,0,0,1,.445,1.309l-1.054,2.409a1.061,1.061,0,0,1-.655.589,1.154,1.154,0,0,1-.295.046,1.061,1.061,0,0,1-.589-.183,7.4,7.4,0,0,0-3.719-1c-4.321,0-6.586,3.588-6.586,7.136,0,4.269,2.678,7.136,6.672,7.136A7.746,7.746,0,0,0,57,199.4a1.087,1.087,0,0,1,.655-.21.8.8,0,0,1,.177,0,1.041,1.041,0,0,1,.7.452l1.48,2.193a1.061,1.061,0,0,1-.288,1.467A10.672,10.672,0,0,1,53.477,205.3Z" transform="translate(-14.314 -62.692)"/><path d="M83.088,205.527A12.367,12.367,0,1,1,88.9,182.4a1.545,1.545,0,0,1,.655,1.964l-1,2.416a1.532,1.532,0,0,1-.989.864,1.427,1.427,0,0,1-.439.065,1.538,1.538,0,0,1-.858-.262,6.953,6.953,0,0,0-3.444-.923c-4,0-6.089,3.339-6.089,6.639,0,3.968,2.481,6.639,6.167,6.639a7.235,7.235,0,0,0,3.418-1.041,1.565,1.565,0,0,1,.936-.314h.255a1.565,1.565,0,0,1,1.034.655l1.473,2.193a1.558,1.558,0,0,1-.419,2.161A11.13,11.13,0,0,1,83.088,205.527Z" transform="translate(-24.369 -62.426)"/><path d="M83.347,205.3A11.865,11.865,0,1,1,88.938,183.1a1.054,1.054,0,0,1,.439,1.309l-1.054,2.409a1.035,1.035,0,0,1-.655.589,1.158,1.158,0,0,1-.3.046,1.054,1.054,0,0,1-.583-.183,7.424,7.424,0,0,0-3.719-1c-4.328,0-6.593,3.588-6.593,7.136,0,4.269,2.684,7.136,6.672,7.136a7.745,7.745,0,0,0,3.706-1.113,1.054,1.054,0,0,1,.655-.209.8.8,0,0,1,.177,0,1.054,1.054,0,0,1,.7.452l1.473,2.193a1.054,1.054,0,0,1-.282,1.467,10.685,10.685,0,0,1-6.226,1.964Z" transform="translate(-24.628 -62.692)"/><path d="M112.481,205.529c-7.2,0-11.981-5.015-11.981-12.485,0-6.868,5.113-12.243,11.647-12.243a10.985,10.985,0,0,1,10.718,11.183,20.143,20.143,0,0,1-.137,2.075,1.558,1.558,0,0,1-1.545,1.381h-14.4c.655,2.292,2.364,4.531,5.513,4.531,2.619,0,4.144-.786,5.172-2.717a1.558,1.558,0,0,1,2.219-.576l2.023,1.309a1.558,1.558,0,0,1,.53,2.036A11.2,11.2,0,0,1,112.481,205.529Zm4.131-15.648a4.937,4.937,0,0,0-4.465-3.522,5.29,5.29,0,0,0-5.12,3.522Z" transform="translate(-34.677 -62.428)"/><path d="M112.744,205.3c-6.868,0-11.484-4.819-11.484-11.988,0-6.586,4.9-11.739,11.13-11.739a10.473,10.473,0,0,1,10.22,10.678,19.136,19.136,0,0,1-.137,2.017,1.054,1.054,0,0,1-1.048.943H106.367c.563,2.835,2.619,5.532,6.148,5.532,2.822,0,4.5-.9,5.611-2.985a1.061,1.061,0,0,1,.655-.53,1.257,1.257,0,0,1,.268,0,1.054,1.054,0,0,1,.57.17l2.03,1.309a1.061,1.061,0,0,1,.36,1.381A10.69,10.69,0,0,1,112.744,205.3Zm4.792-14.652a5.531,5.531,0,0,0-5.126-4.518,5.9,5.9,0,0,0-5.82,4.518Z" transform="translate(-34.939 -62.694)"/><path d="M144.354,205.532a10.174,10.174,0,0,1-7.523-3.274,1.565,1.565,0,0,1,0-2.121l1.735-1.814a1.558,1.558,0,0,1,2.259,0,4.806,4.806,0,0,0,3.594,1.656s2.75,0,2.75-1.859c0-1.159-1.048-1.7-3.444-2.658l-.1-.039c-2.619-1.067-6.586-2.678-6.586-7.523,0-4.177,3.274-7.091,7.974-7.091a10.227,10.227,0,0,1,6.639,2.337,1.558,1.558,0,0,1,.229,2.18l-1.558,1.964a1.552,1.552,0,0,1-1.211.576,1.525,1.525,0,0,1-.956-.327,5.375,5.375,0,0,0-3.228-1.152c-.655,0-2.075.314-2.075,1.309s1.126,1.611,3.5,2.58l.818.334c1.794.746,5.984,2.494,5.984,7.6C153.167,202.71,148.584,205.532,144.354,205.532Z" transform="translate(-47.079 -62.431)"/><path d="M144.616,205.286a9.67,9.67,0,0,1-7.156-3.149,1.054,1.054,0,0,1,0-1.44l1.728-1.814a1.054,1.054,0,0,1,.766-.327h0a1.048,1.048,0,0,1,.766.334,5.31,5.31,0,0,0,3.928,1.82c1.126,0,3.274-.5,3.274-2.364,0-1.539-1.427-2.187-3.751-3.123l-.1-.039c-2.619-1.074-6.272-2.547-6.272-7.058,0-3.882,3.071-6.586,7.47-6.586a9.755,9.755,0,0,1,6.324,2.219,1.054,1.054,0,0,1,.157,1.48l-1.565,1.964a1.059,1.059,0,0,1-1.473.17,5.892,5.892,0,0,0-3.535-1.257c-1,0-2.573.484-2.573,1.774,0,1.414,1.447,2.075,3.81,3.038l.818.34c1.84.766,5.676,2.364,5.676,7.136C152.937,202.654,148.616,205.286,144.616,205.286Z" transform="translate(-47.341 -62.683)"/><path d="M172.6,205.538a10.175,10.175,0,0,1-7.523-3.274,1.558,1.558,0,0,1,0-2.121l1.728-1.814a1.552,1.552,0,0,1,1.126-.478,1.532,1.532,0,0,1,1.133.491A4.819,4.819,0,0,0,172.662,200s2.75,0,2.75-1.859c0-1.159-1.048-1.7-3.444-2.658l-.1-.039c-2.619-1.067-6.547-2.678-6.547-7.523,0-4.177,3.274-7.091,7.974-7.091a10.253,10.253,0,0,1,6.652,2.318,1.565,1.565,0,0,1,.229,2.18l-1.565,1.964a1.552,1.552,0,0,1-1.211.576,1.577,1.577,0,0,1-.956-.327,5.355,5.355,0,0,0-3.221-1.152c-.655,0-2.082.314-2.082,1.309s1.126,1.611,3.5,2.58l.825.334c1.787.746,5.977,2.494,5.977,7.6C181.422,202.716,176.845,205.538,172.6,205.538Z" transform="translate(-56.832 -62.437)"/><path d="M172.866,205.286a9.684,9.684,0,0,1-7.156-3.149,1.054,1.054,0,0,1,0-1.44l1.729-1.814a1.067,1.067,0,0,1,.766-.327h0a1.074,1.074,0,0,1,.766.334,5.283,5.283,0,0,0,3.928,1.82c1.126,0,3.274-.5,3.274-2.363,0-1.539-1.427-2.193-3.758-3.123l-.1-.039c-2.619-1.074-6.272-2.547-6.272-7.058,0-3.882,3.071-6.586,7.477-6.586a9.781,9.781,0,0,1,6.325,2.219,1.054,1.054,0,0,1,.151,1.48l-1.558,1.964a1.074,1.074,0,0,1-.825.393,1.041,1.041,0,0,1-.655-.223,5.893,5.893,0,0,0-3.529-1.257c-1,0-2.58.484-2.58,1.774,0,1.414,1.453,2.075,3.817,3.038l.812.34c1.84.766,5.676,2.364,5.676,7.136C181.187,202.654,176.866,205.286,172.866,205.286Z" transform="translate(-57.095 -62.683)"/><path d="M215.455,200.334a1.558,1.558,0,0,1-1.48-1.061l-1.879-5.65H201.287l-2.154,5.69a1.571,1.571,0,0,1-1.453,1h-3.274a1.539,1.539,0,0,1-1.309-.655,1.565,1.565,0,0,1-.17-1.44l11.405-29.554a1.558,1.558,0,0,1,1.447-1h2.874a1.558,1.558,0,0,1,1.473,1.041l10.312,29.56a1.539,1.539,0,0,1-.2,1.408,1.558,1.558,0,0,1-1.27.655Zm-5.323-12.695-3.11-9.4-3.516,9.4Z" transform="translate(-66.555 -57.894)"/><path d="M238.762,215.348a1.558,1.558,0,0,1-1.552-1.558V182.632a1.558,1.558,0,0,1,1.552-1.558h2.894a1.552,1.552,0,0,1,1.414.91,10.285,10.285,0,0,1,5.238-1.414,12.06,12.06,0,0,1,12.112,12.276,12.322,12.322,0,0,1-12.151,12.44,11.706,11.706,0,0,1-5.035-1.178v9.67a1.558,1.558,0,0,1-1.552,1.558Zm4.426-18.037a7.2,7.2,0,0,0,4.989,2.259,6.288,6.288,0,0,0,6.135-6.547c0-3.771-2.7-6.717-6.135-6.717a6.063,6.063,0,0,0-4.989,2.717Z" transform="translate(-81.881 -62.348)"/><path d="M278.242,215.348a1.558,1.558,0,0,1-1.552-1.558V182.632a1.558,1.558,0,0,1,1.552-1.558h2.874a1.558,1.558,0,0,1,1.414.91,10.266,10.266,0,0,1,5.238-1.414,12.066,12.066,0,0,1,12.112,12.276,12.322,12.322,0,0,1-12.151,12.44,11.706,11.706,0,0,1-5.035-1.178v9.67a1.558,1.558,0,0,1-1.552,1.558Zm4.426-18.037a7.2,7.2,0,0,0,4.989,2.259,6.288,6.288,0,0,0,6.135-6.547c0-3.771-2.7-6.717-6.135-6.717a6.063,6.063,0,0,0-4.989,2.717Z" transform="translate(-95.513 -62.348)"/></g></g></svg>