<svg id="f50acf39-1198-40ba-9273-d52b01ad4075" data-name="Layer 1" xmlns="http://www.w3.org/2000/svg" xmlns:xlink="http://www.w3.org/1999/xlink" viewBox="0 0 512.74 135.69"><defs><linearGradient id="b1763907-f630-40ba-a1e1-dce717a79c3c" x1="-328.89" y1="370.84" x2="-328.89" y2="368.89" gradientTransform="matrix(36.91, 0, 0, -23.19, 12174.77, 8690.27)" gradientUnits="userSpaceOnUse"><stop offset="0" stop-color="#335cea"/><stop offset="1" stop-color="#00d29b"/></linearGradient><linearGradient id="bc5f3c31-b8c0-4d6c-8642-703d5c6f777d" x1="-327.51" y1="370.84" x2="-327.51" y2="368.9" gradientTransform="matrix(36.91, 0, 0, -23.2, 12228.83, 8692.48)" xlink:href="#b1763907-f630-40ba-a1e1-dce717a79c3c"/><linearGradient id="b84b5127-ab3a-4dd2-a903-35efbeaf94d6" x1="-330.97" y1="378.96" x2="-330.97" y2="377.02" gradientTransform="matrix(91.01, 0, 0, -58.98, 30209.35, 22352.49)" xlink:href="#b1763907-f630-40ba-a1e1-dce717a79c3c"/></defs><g id="ad0cbc65-760a-4275-9d49-3a87e05b22e7" data-name="Layer 2"><g id="b9d11252-e699-43e6-aeb6-3f084b789b81" data-name="Layer 2-2"><g id="b7dd50de-1aae-4c1c-9ef8-10195cbee2e2" data-name="Group 3252"><path id="b4502f75-d04f-4a28-8dec-fdc836fea196" data-name="Path 100" d="M243.45,105.47A1.58,1.58,0,0,1,242,104.4l-3-8.88H222l-3.37,9a1.59,1.59,0,0,1-1.47,1h-4.85a1.56,1.56,0,0,1-1.56-1.58,1.44,1.44,0,0,1,.1-.54l16.92-43.76a1.56,1.56,0,0,1,1.46-1h4.19a1.56,1.56,0,0,1,1.48,1.05l15.26,43.76a1.55,1.55,0,0,1-1.46,2.07Zm-6.86-17.33L231,71.24l-6.31,16.9Z" style="fill:#474a67"/><path id="a7cc2629-d645-40a2-acda-e8f55e45a6e0" data-name="Path 102" d="M268,106.26a17.58,17.58,0,1,1,8.28-32.89,1.56,1.56,0,0,1,.66,1.95l-1.56,3.57a1.58,1.58,0,0,1-1,.87,2.14,2.14,0,0,1-.43.07,1.64,1.64,0,0,1-.88-.28,11,11,0,0,0-5.51-1.48c-6.4,0-9.75,5.32-9.75,10.57,0,6.33,4,10.58,9.88,10.58a11.51,11.51,0,0,0,5.5-1.69,1.54,1.54,0,0,1,1-.31,1.22,1.22,0,0,1,.27,0,1.5,1.5,0,0,1,1,.66l2.2,3.25a1.59,1.59,0,0,1-.43,2.18A15.84,15.84,0,0,1,268,106.26Z" style="fill:#474a67"/><path id="a336285a-6163-4652-9a8b-c4aa7a68dcfa" data-name="Path 104" d="M297,106.26a17.58,17.58,0,1,1,8.29-32.89,1.57,1.57,0,0,1,.65,1.95l-1.56,3.57a1.53,1.53,0,0,1-1,.87,2.34,2.34,0,0,1-.45.07,1.55,1.55,0,0,1-.86-.28,11,11,0,0,0-5.51-1.48c-6.42,0-9.77,5.32-9.77,10.57,0,6.33,4,10.58,9.89,10.58a11.6,11.6,0,0,0,5.49-1.65,1.61,1.61,0,0,1,1-.32h.26a1.6,1.6,0,0,1,1,.67l2.18,3.25a1.56,1.56,0,0,1-.4,2.17h0a15.83,15.83,0,0,1-9.23,2.91Z" style="fill:#474a67"/><path id="a5eba34e-9406-4e5d-8dcf-1cfeb614bfed" data-name="Path 106" d="M325.23,106.26c-10.18,0-17-7.14-17-17.76a16.78,16.78,0,0,1,16.15-17.39h.34a15.52,15.52,0,0,1,15.14,15.82,27.13,27.13,0,0,1-.2,3,1.55,1.55,0,0,1-1.55,1.4H315.78a9.38,9.38,0,0,0,9.11,8.19c4.18,0,6.67-1.33,8.31-4.42a1.61,1.61,0,0,1,1-.78h.39a1.52,1.52,0,0,1,.85.26l3,1.94a1.58,1.58,0,0,1,.54,2A15.87,15.87,0,0,1,325.23,106.26Zm7.1-21.71a8.2,8.2,0,0,0-7.59-6.7,8.76,8.76,0,0,0-8.63,6.7Z" style="fill:#474a67"/><path id="a51d959f-8a25-479f-a607-0c904b6e1f10" data-name="Path 107" d="M354.08,107a15.08,15.08,0,0,1-11.15-4.85,2.31,2.31,0,0,1,0-3.14l2.57-2.69a2.32,2.32,0,0,1,3.27-.08l.08.08a7.12,7.12,0,0,0,5.32,2.46s4.08,0,4.08-2.76c0-1.72-1.56-2.53-5.1-3.94L353,92c-3.89-1.59-9.76-4-9.76-11.15,0-6.19,4.86-10.5,11.82-10.5a15.12,15.12,0,0,1,9.83,3.46,2.31,2.31,0,0,1,.35,3.23L362.92,80a2.32,2.32,0,0,1-1.8.85,2.19,2.19,0,0,1-1.41-.48,8,8,0,0,0-4.79-1.71c-1,0-3.07.47-3.07,2S353.52,83,357,84.41l1.21.49c2.66,1.11,8.87,3.7,8.87,11.26C367.13,102.81,360.34,107,354.08,107Z" style="fill:#474a67"/><path id="b367aa89-595d-479b-acee-1d0fe887ee6f" data-name="Path 110" d="M381.48,106.26a14.39,14.39,0,0,1-10.6-4.67,1.55,1.55,0,0,1,0-2.14l2.56-2.69a1.58,1.58,0,0,1,1.14-.48h0a1.55,1.55,0,0,1,1.13.49,7.86,7.86,0,0,0,5.82,2.7c1.67,0,4.85-.74,4.85-3.5,0-2.28-2.11-3.25-5.56-4.63l-.16-.06c-3.89-1.59-9.29-3.77-9.29-10.46,0-5.75,4.55-9.75,11.08-9.75a14.47,14.47,0,0,1,9.37,3.29,1.55,1.55,0,0,1,.23,2.18h0l-2.31,2.91a1.58,1.58,0,0,1-2.2.26,8.69,8.69,0,0,0-5.22-1.87c-1.49,0-3.83.72-3.83,2.63,0,2.1,2.16,3.08,5.66,4.5l1.2.51c2.73,1.13,8.41,3.5,8.41,10.57C393.81,102.36,387.41,106.26,381.48,106.26Z" style="fill:#474a67"/><path id="f8ddc7da-429b-451e-9651-6ed5c2704d5b" data-name="Path 111" d="M430.56,106a2.3,2.3,0,0,1-2.19-1.57l-2.78-8.36h-16l-3.19,8.43a2.32,2.32,0,0,1-2.15,1.48h-4.85a2.29,2.29,0,0,1-1.95-1,2.33,2.33,0,0,1-.25-2.14l16.9-43.79a2.31,2.31,0,0,1,2.14-1.47h4.26a2.32,2.32,0,0,1,2.18,1.54L437.94,103a2.27,2.27,0,0,1-.3,2.08,2.3,2.3,0,0,1-1.88,1Zm-7.88-18.8-4.61-13.93-5.21,13.93Z" style="fill:#474a67"/><path id="f39e7bf4-889f-4acf-8d2f-2921dd731807" data-name="Path 112" d="M442.39,121.66a2.32,2.32,0,0,1-2.3-2.31V73.19a2.31,2.31,0,0,1,2.3-2.31h4.28a2.28,2.28,0,0,1,2.09,1.35,15.22,15.22,0,0,1,7.76-2.1,17.88,17.88,0,0,1,18,17.79v.4a18.27,18.27,0,0,1-18,18.43A17.41,17.41,0,0,1,449,105v14.33a2.31,2.31,0,0,1-2.29,2.31ZM449,94.93a10.64,10.64,0,0,0,7.39,3.35,9.31,9.31,0,0,0,9.09-9.53,1,1,0,0,0,0-.17,9.43,9.43,0,0,0-8.92-9.94h-.16a9,9,0,0,0-7.39,4Z" style="fill:#474a67"/><path id="a00d579c-683c-4e0a-bc59-17dba135408e" data-name="Path 113" d="M480.68,121.66a2.32,2.32,0,0,1-2.3-2.31V73.19a2.31,2.31,0,0,1,2.3-2.31h4.26a2.32,2.32,0,0,1,2.1,1.35,15.12,15.12,0,0,1,7.76-2.1,17.87,17.87,0,0,1,17.94,17.81v.38a18.25,18.25,0,0,1-18,18.43,17.24,17.24,0,0,1-7.46-1.75v14.33a2.32,2.32,0,0,1-2.3,2.31Zm6.56-26.73a10.66,10.66,0,0,0,7.39,3.35,9.31,9.31,0,0,0,9.09-9.53v-.17a9.44,9.44,0,0,0-8.92-9.94h-.17a9,9,0,0,0-7.39,4Z" style="fill:#474a67"/><path id="ecb05787-6774-4df0-bdd3-85516045c6cb" data-name="Path 99" d="M243.45,106.25a2.3,2.3,0,0,1-2.18-1.58l-2.8-8.36h-16l-3.19,8.45a2.34,2.34,0,0,1-2.16,1.49h-4.85a2.32,2.32,0,0,1-2.15-3.14L227,59.33a2.31,2.31,0,0,1,2.15-1.48h4.19a2.3,2.3,0,0,1,2.17,1.54l15.27,43.79a2.31,2.31,0,0,1-1.42,2.94,2.81,2.81,0,0,1-.75.13Zm-7.88-18.81-4.61-14-5.21,13.93Z" style="fill:#474a67"/><path id="a15e8000-6b6a-482b-9c97-bf1536129461" data-name="Path 101" d="M268,107a18.32,18.32,0,1,1,8.65-34.26,2.3,2.3,0,0,1,1,2.92L276,79.22a2.32,2.32,0,0,1-1.46,1.28,2.38,2.38,0,0,1-.65.1,2.43,2.43,0,0,1-1.28-.39,10.15,10.15,0,0,0-5.1-1.37c-5.92,0-9,5-9,9.84,0,5.88,3.68,9.83,9.14,9.83A10.66,10.66,0,0,0,272.72,97a2.26,2.26,0,0,1,1.37-.46h.4a2.31,2.31,0,0,1,1.53,1l2.19,3.25a2.31,2.31,0,0,1-.62,3.2A16.49,16.49,0,0,1,268,107Z" style="fill:#474a67"/><path id="b8da4496-5416-4421-9f0e-8f788fd8e671" data-name="Path 103" d="M297,107a18.32,18.32,0,1,1,8.61-34.26,2.3,2.3,0,0,1,1,2.92l-1.47,3.58a2.31,2.31,0,0,1-1.47,1.28,2,2,0,0,1-.65.09,2.31,2.31,0,0,1-1.27-.38,10.36,10.36,0,0,0-5.1-1.37c-5.93,0-9,5-9,9.84,0,5.88,3.68,9.83,9.14,9.83A10.66,10.66,0,0,0,301.75,97a2.29,2.29,0,0,1,1.38-.46h.39a2.31,2.31,0,0,1,1.53,1l2.18,3.25a2.3,2.3,0,0,1-.62,3.2A16.47,16.47,0,0,1,297,107Z" style="fill:#474a67"/><path id="a150dc8f-9d6f-4f92-b661-fbe899a00c1a" data-name="Path 105" d="M325.23,107c-10.67,0-17.75-7.43-17.75-18.49a17.53,17.53,0,0,1,16.89-18.14h.37a16.26,16.26,0,0,1,15.87,16.56,28.77,28.77,0,0,1-.19,3.08,2.3,2.3,0,0,1-2.29,2H316.78A8.42,8.42,0,0,0,325,98.76c3.89,0,6.14-1.17,7.66-4a2.32,2.32,0,0,1,3.13-1l.16.1,3,1.94a2.31,2.31,0,0,1,.78,3A16.6,16.6,0,0,1,325.23,107Zm6.12-23.18a7.32,7.32,0,0,0-6.61-5.22,7.85,7.85,0,0,0-7.59,5.22Z" style="fill:#474a67"/><path id="b013ab09-d161-411f-aa29-5c28a9042566" data-name="Path 108" d="M354.08,106.26a14.33,14.33,0,0,1-10.6-4.67,1.55,1.55,0,0,1,0-2.14L346,96.76a1.5,1.5,0,0,1,1.13-.48h0a1.59,1.59,0,0,1,1.14.49,7.84,7.84,0,0,0,5.82,2.7c1.67,0,4.85-.74,4.85-3.5,0-2.28-2.11-3.24-5.56-4.63l-.15-.06c-3.89-1.59-9.3-3.77-9.3-10.46,0-5.75,4.55-9.75,11.07-9.75a14.39,14.39,0,0,1,9.37,3.29,1.54,1.54,0,0,1,.24,2.18h0l-2.32,2.91a1.57,1.57,0,0,1-2.18.26,8.77,8.77,0,0,0-5.24-1.87c-1.48,0-3.81.72-3.81,2.63,0,2.1,2.14,3.08,5.64,4.5l1.21.51c2.72,1.13,8.41,3.5,8.41,10.57C366.41,102.36,360,106.26,354.08,106.26Z" style="fill:#474a67"/><path id="a769ede7-fbab-41bd-af51-f461cfc01ae6" data-name="Path 109" d="M381.48,107a15.08,15.08,0,0,1-11.15-4.85,2.31,2.31,0,0,1,0-3.14l2.57-2.69a2.3,2.3,0,0,1,1.66-.71,2.27,2.27,0,0,1,1.68.73,7.16,7.16,0,0,0,5.33,2.46s4.07,0,4.07-2.76c0-1.72-1.55-2.53-5.1-3.94l-.15-.06c-3.89-1.58-9.71-4-9.71-11.14,0-6.19,4.85-10.5,11.82-10.5a15.14,15.14,0,0,1,9.85,3.43,2.31,2.31,0,0,1,.34,3.23L390.38,80a2.32,2.32,0,0,1-3.21.37,7.93,7.93,0,0,0-4.78-1.71c-1,0-3.08.47-3.08,2S381,83,384.5,84.4l1.22.49c2.65,1.11,8.86,3.7,8.86,11.26C394.55,102.81,387.77,107,381.48,107Z" style="fill:#474a67"/></g><g id="a5debb88-0c35-4d89-bca2-717562b6e4d1" data-name="Group 3264"><path id="bcdab599-aded-4499-8b72-93e155d704d0" data-name="Path 96" d="M69.1,114.61,4.89,135.54A3.79,3.79,0,0,1,.19,133,3.88,3.88,0,0,1,0,131.81V90.59H71.82v20.29A3.89,3.89,0,0,1,69.1,114.61Z" style="fill:url(#b1763907-f630-40ba-a1e1-dce717a79c3c)"/><path id="ac8e730c-a095-46a3-837c-6c828d7441ea" data-name="Path 97" d="M107.8,114.61,172,135.54a3.78,3.78,0,0,0,4.9-3.73V90.59H105.13v20.29A3.89,3.89,0,0,0,107.8,114.61Z" style="fill:url(#bc5f3c31-b8c0-4d6c-8642-703d5c6f777d)"/><path id="b94860f7-d770-48ad-8e9d-2575a7956e09" data-name="Path 115" d="M175.31,61.8,88.5,0,1.67,61.81A4,4,0,0,0,0,65.05v49.66L88.49,55,177,114.71V65.07a4,4,0,0,0-1.69-3.27Z" style="fill:url(#b84b5127-ab3a-4dd2-a903-35efbeaf94d6)"/></g></g></g></svg>