<svg xmlns="http://www.w3.org/2000/svg" width="70.63" height="92.433" viewBox="0 0 70.63 92.433"><defs><style>.a{fill:#3da638;stroke:#1c511c;stroke-linecap:round;stroke-linejoin:round;stroke-width:3px;}</style></defs><g transform="translate(213.774 23.305)"><g transform="translate(-212.274 -21.805)"><path class="a" d="M46.137-398.2c4.838-1.8,7.363-5.257,7.363-11.212a11.389,11.389,0,0,0-11.288-11.213A11.3,11.3,0,0,0,30.684-409.41c.08,5.977,2.93,9.953,7.492,11.39l-8.082,19.882c-10.816-2.8-21.817-15.56-21.817-31.272a33.611,33.611,0,0,1,33.695-33.7,33.816,33.816,0,0,1,33.935,33.7c0,15.956-10.9,28.539-21.943,31.328Zm0,0" transform="translate(-8.277 443.105)"/></g><g transform="translate(-213.708 49.581)"><path d="M61.991,650.134a3.774,3.774,0,0,1-.856,2.629,3.056,3.056,0,0,1-2.387.939,3.012,3.012,0,0,1-2.347-.963,4.378,4.378,0,0,1-.017-5.21,3.092,3.092,0,0,1,2.4-.933,3.259,3.259,0,0,1,1.684.43,2.843,2.843,0,0,1,1.125,1.236A4.138,4.138,0,0,1,61.991,650.134Zm-4.191,0a3.233,3.233,0,0,0,.223,1.351.769.769,0,0,0,.748.46.743.743,0,0,0,.731-.46,3.309,3.309,0,0,0,.217-1.351,3.157,3.157,0,0,0-.217-1.327.834.834,0,0,0-1.479,0A3.06,3.06,0,0,0,57.8,650.134Z" transform="translate(-55.533 -646.596)"/><path d="M110.927,653.7a2.176,2.176,0,0,1-.879-.17,2.292,2.292,0,0,1-.771-.624h-.1q.1.721.1.9v2.756h-2.232v-9.844h1.816l.314.872h.1A1.932,1.932,0,0,1,111,646.6a1.907,1.907,0,0,1,1.684.945,4.741,4.741,0,0,1,.611,2.593,4.66,4.66,0,0,1-.639,2.617A1.972,1.972,0,0,1,110.927,653.7Zm-.748-5.246a.716.716,0,0,0-.691.376,2.578,2.578,0,0,0-.211,1.1v.188a2.731,2.731,0,0,0,.223,1.278.749.749,0,0,0,.7.394.65.65,0,0,0,.622-.388,3.143,3.143,0,0,0,.194-1.3,2.993,2.993,0,0,0-.194-1.266A.668.668,0,0,0,110.179,648.456Z" transform="translate(-99.319 -646.596)"/><path d="M158.684,653.7a3.37,3.37,0,0,1-2.512-.909,3.572,3.572,0,0,1-.891-2.6,3.873,3.873,0,0,1,.828-2.665,3.5,3.5,0,0,1,4.619-.121,3.164,3.164,0,0,1,.8,2.326v1.054h-3.991a1.209,1.209,0,0,0,.394.9,1.505,1.505,0,0,0,1.022.327,4.727,4.727,0,0,0,1.079-.115,5.273,5.273,0,0,0,1.073-.406v1.7a3.784,3.784,0,0,1-1.085.394A7.091,7.091,0,0,1,158.684,653.7Zm-.131-5.495a.9.9,0,0,0-.662.267,1.273,1.273,0,0,0-.308.824H159.5a1.215,1.215,0,0,0-.268-.793A.844.844,0,0,0,158.552,648.207Z" transform="translate(-140.321 -646.596)"/><path d="M209.5,653.58v-3.744a2.21,2.21,0,0,0-.188-1.03.621.621,0,0,0-.594-.351.855.855,0,0,0-.816.479,3.821,3.821,0,0,0-.251,1.642v3h-2.232v-6.863H207.1l.28.848h.131a1.807,1.807,0,0,1,.788-.727,2.676,2.676,0,0,1,1.165-.242,2.127,2.127,0,0,1,1.667.66,2.669,2.669,0,0,1,.6,1.86v4.464Z" transform="translate(-182.942 -646.596)"/><path d="M281.142,652.6a1.8,1.8,0,0,1-.674,1.508,3.1,3.1,0,0,1-1.93.521,4.334,4.334,0,0,1-2.027-.406v-1.23a4.745,4.745,0,0,0,2.073.545q1.239,0,1.239-.794a.653.653,0,0,0-.137-.424,1.631,1.631,0,0,0-.451-.351,7.528,7.528,0,0,0-.874-.412,4.031,4.031,0,0,1-1.479-.9,1.729,1.729,0,0,1-.383-1.163,1.551,1.551,0,0,1,.651-1.333,2.966,2.966,0,0,1,1.781-.479,4.793,4.793,0,0,1,2.107.479l-.434,1.072a4.465,4.465,0,0,0-1.719-.448q-1.062,0-1.062.642a.659.659,0,0,0,.274.533,6.048,6.048,0,0,0,1.21.6,5.4,5.4,0,0,1,1.136.588,1.716,1.716,0,0,1,.525.618A1.851,1.851,0,0,1,281.142,652.6Z" transform="translate(-243.361 -647.523)"/><path d="M320.549,651.145a3.8,3.8,0,0,1-.794,2.562,2.761,2.761,0,0,1-2.21.921,2.893,2.893,0,0,1-1.565-.424,2.746,2.746,0,0,1-1.045-1.218,4.362,4.362,0,0,1-.365-1.842,3.775,3.775,0,0,1,.788-2.544,2.773,2.773,0,0,1,2.221-.915,2.7,2.7,0,0,1,2.17.939A3.744,3.744,0,0,1,320.549,651.145Zm-4.6,0q0,2.32,1.616,2.32,1.6,0,1.6-2.32,0-2.3-1.61-2.3a1.352,1.352,0,0,0-1.228.594A3.187,3.187,0,0,0,315.953,651.145Z" transform="translate(-275.723 -647.523)"/><path d="M368.879,655.194l-.188-.878h-.069a1.938,1.938,0,0,1-.8.733,2.518,2.518,0,0,1-1.176.267,2.235,2.235,0,0,1-1.713-.606,2.609,2.609,0,0,1-.565-1.836v-4.38h1.353v4.131a1.886,1.886,0,0,0,.3,1.157,1.106,1.106,0,0,0,.931.382,1.439,1.439,0,0,0,1.239-.533,3.093,3.093,0,0,0,.4-1.8v-3.338h1.348v6.7Z" transform="translate(-318.052 -648.21)"/><path d="M417.445,647.686a3.053,3.053,0,0,1,.668.061l-.131,1.327a2.4,2.4,0,0,0-.594-.073,1.678,1.678,0,0,0-1.307.557,2.094,2.094,0,0,0-.5,1.448v3.5h-1.342v-6.7h1.051l.177,1.181h.068a2.614,2.614,0,0,1,.816-.951A1.882,1.882,0,0,1,417.445,647.686Z" transform="translate(-360.446 -647.523)"/><path d="M448.308,654.629a2.7,2.7,0,0,1-2.181-.884,4.745,4.745,0,0,1,.034-5.149,2.814,2.814,0,0,1,2.255-.909,4.015,4.015,0,0,1,1.8.394l-.405,1.145a3.87,3.87,0,0,0-1.4-.351q-1.639,0-1.639,2.308a2.923,2.923,0,0,0,.405,1.7,1.392,1.392,0,0,0,1.2.563,3.279,3.279,0,0,0,1.7-.473v1.242a2.556,2.556,0,0,1-.771.321A4.313,4.313,0,0,1,448.308,654.629Z" transform="translate(-386.918 -647.523)"/><path d="M487.2,654.629a2.974,2.974,0,0,1-2.307-.909,3.609,3.609,0,0,1-.828-2.514,3.952,3.952,0,0,1,.771-2.581,2.593,2.593,0,0,1,2.118-.939,2.524,2.524,0,0,1,1.976.806,3.194,3.194,0,0,1,.725,2.217v.769h-4.208a2.3,2.3,0,0,0,.5,1.5,1.682,1.682,0,0,0,1.319.521,4.688,4.688,0,0,0,1.039-.109,5.384,5.384,0,0,0,1.039-.376v1.157a3.951,3.951,0,0,1-.994.351A5.745,5.745,0,0,1,487.2,654.629Zm-.246-5.864a1.318,1.318,0,0,0-1.028.43,2.132,2.132,0,0,0-.457,1.254h2.866a1.917,1.917,0,0,0-.377-1.254A1.249,1.249,0,0,0,486.954,648.765Z" transform="translate(-419.797 -647.523)"/><path d="M131.118,723.588h-1.342v-6.7h1.342Zm-1.422-8.475a.824.824,0,0,1,.194-.588.751.751,0,0,1,.565-.206.717.717,0,0,1,.548.206.946.946,0,0,1,0,1.163.717.717,0,0,1-.548.206.751.751,0,0,1-.565-.206A.819.819,0,0,1,129.7,715.114Z" transform="translate(-118.574 -704.163)"/><path d="M157.562,737.46h-1.347V733.34a1.87,1.87,0,0,0-.3-1.157,1.1,1.1,0,0,0-.931-.382,1.445,1.445,0,0,0-1.245.533,3.084,3.084,0,0,0-.394,1.787v3.338h-1.342v-6.7h1.051l.188.878h.069a1.905,1.905,0,0,1,.811-.739,2.586,2.586,0,0,1,1.165-.26q2.272,0,2.272,2.453Z" transform="translate(-137.538 -718.034)"/><path d="M202.388,723.588h-1.342v-6.7h1.342Zm-1.422-8.475a.824.824,0,0,1,.194-.588.751.751,0,0,1,.565-.206.717.717,0,0,1,.548.206.946.946,0,0,1,0,1.163.716.716,0,0,1-.548.206.751.751,0,0,1-.565-.206A.819.819,0,0,1,200.966,715.114Z" transform="translate(-179.155 -704.163)"/><path d="M221.454,728.67a3.092,3.092,0,0,0,.982-.164v1.072a2.5,2.5,0,0,1-.577.17,3.541,3.541,0,0,1-.725.073q-1.907,0-1.907-2.132v-3.61h-.862v-.63l.925-.521.457-1.417h.828V723h1.8v1.078h-1.8v3.586a1.063,1.063,0,0,0,.24.763A.871.871,0,0,0,221.454,728.67Z" transform="translate(-193.945 -710.275)"/><path d="M254.774,723.588h-1.342v-6.7h1.342Zm-1.422-8.475a.824.824,0,0,1,.194-.588.751.751,0,0,1,.565-.206.717.717,0,0,1,.548.206.946.946,0,0,1,0,1.163.717.717,0,0,1-.548.206.751.751,0,0,1-.565-.206A.819.819,0,0,1,253.352,715.114Z" transform="translate(-223.685 -704.163)"/><path d="M277.089,737.46l-.268-.933h-.046a2.665,2.665,0,0,1-.919.836,2.794,2.794,0,0,1-1.188.218,1.951,1.951,0,0,1-1.456-.533,2.071,2.071,0,0,1-.52-1.508,1.808,1.808,0,0,1,.725-1.563,4,4,0,0,1,2.21-.575l1.091-.036v-.357a1.388,1.388,0,0,0-.286-.957,1.1,1.1,0,0,0-.874-.321,2.872,2.872,0,0,0-.931.151,6.8,6.8,0,0,0-.856.357l-.434-1.018a4.425,4.425,0,0,1,1.125-.43,4.8,4.8,0,0,1,1.153-.151,2.612,2.612,0,0,1,1.816.557,2.249,2.249,0,0,1,.617,1.751v4.513Zm-2-.969a1.6,1.6,0,0,0,1.17-.43,1.626,1.626,0,0,0,.445-1.218v-.582l-.811.036a2.642,2.642,0,0,0-1.382.339,1.037,1.037,0,0,0-.428.915.936.936,0,0,0,.251.7A1.047,1.047,0,0,0,275.091,736.49Z" transform="translate(-240.125 -718.034)"/><path d="M319.069,728.67a3.092,3.092,0,0,0,.982-.164v1.072a2.5,2.5,0,0,1-.577.17,3.541,3.541,0,0,1-.725.073q-1.907,0-1.907-2.132v-3.61h-.862v-.63l.925-.521.457-1.417h.828V723h1.8v1.078h-1.8v3.586a1.063,1.063,0,0,0,.24.763A.871.871,0,0,0,319.069,728.67Z" transform="translate(-276.92 -710.275)"/><path d="M352.389,723.588h-1.342v-6.7h1.342Zm-1.422-8.475a.824.824,0,0,1,.194-.588.751.751,0,0,1,.565-.206.717.717,0,0,1,.548.206.946.946,0,0,1,0,1.163.717.717,0,0,1-.548.206.751.751,0,0,1-.565-.206A.819.819,0,0,1,350.968,715.114Z" transform="translate(-306.661 -704.163)"/><path d="M369.279,738.146l-2.4-6.7H368.3l1.285,3.9a8.1,8.1,0,0,1,.4,1.587h.046a11.181,11.181,0,0,1,.4-1.587l1.285-3.9h1.427l-2.409,6.7Z" transform="translate(-320.188 -718.721)"/><path d="M415.626,737.581a2.974,2.974,0,0,1-2.307-.909,3.608,3.608,0,0,1-.828-2.514,3.952,3.952,0,0,1,.771-2.581,2.592,2.592,0,0,1,2.118-.939,2.524,2.524,0,0,1,1.976.806,3.194,3.194,0,0,1,.725,2.217v.769h-4.208a2.3,2.3,0,0,0,.5,1.5,1.682,1.682,0,0,0,1.319.521,4.68,4.68,0,0,0,1.039-.109,5.382,5.382,0,0,0,1.039-.375v1.157a3.958,3.958,0,0,1-.994.351A5.756,5.756,0,0,1,415.626,737.581Zm-.246-5.864a1.318,1.318,0,0,0-1.028.43,2.131,2.131,0,0,0-.457,1.254h2.866a1.916,1.916,0,0,0-.377-1.254A1.248,1.248,0,0,0,415.38,731.717Z" transform="translate(-358.957 -718.034)"/><g transform="translate(60.143 9.878)"><path d="M19.357,413h.285a.5.5,0,0,0,.337-.108.352.352,0,0,0,.129-.279.329.329,0,0,0-.113-.282.591.591,0,0,0-.359-.087h-.279Zm1.144-.4a.641.641,0,0,1-.113.374.659.659,0,0,1-.314.24l.627,1.041h-.443l-.546-.933h-.356v.933h-.39v-2.349h.688a.983.983,0,0,1,.641.171A.641.641,0,0,1,20.5,412.6Zm-2.786.48a1.96,1.96,0,0,1,.264-.989,1.934,1.934,0,0,1,.725-.728,1.987,1.987,0,0,1,1.982,0,1.934,1.934,0,0,1,.728.725,1.984,1.984,0,1,1-3.7.994Zm.277,0a1.7,1.7,0,0,0,1.706,1.706,1.66,1.66,0,0,0,.852-.229,1.71,1.71,0,0,0,.622-.62,1.7,1.7,0,0,0,0-1.708,1.7,1.7,0,0,0-.622-.622,1.641,1.641,0,0,0-.854-.232,1.66,1.66,0,0,0-.852.229,1.724,1.724,0,0,0-.625.622A1.655,1.655,0,0,0,17.991,413.082Z" transform="translate(-17.714 -411.1)"/></g></g></g></svg>