<svg xmlns="http://www.w3.org/2000/svg" xmlns:xlink="http://www.w3.org/1999/xlink" viewBox="0 0 500.09 182.47"><defs><clipPath id="ab8676da-030f-44a4-8d5d-784861764368" transform="translate(0.63 0)"><path d="M46.53,0H4A3.91,3.91,0,0,0,.19,5.05l21.58,66.2A4,4,0,0,0,25.61,74H46.53Z" style="fill:none"/></clipPath><linearGradient id="a21989b4-d01d-4eb4-b0f4-91c4d1b71520" x1="-224.63" y1="-902.79" x2="-223.63" y2="-902.79" gradientTransform="matrix(-46.53, 0, 0, 46.53, -10404.2, 42041.97)" gradientUnits="userSpaceOnUse"><stop offset="0" stop-color="#335cea"/><stop offset="1" stop-color="#00d29b"/></linearGradient><clipPath id="bdb5e878-6243-4f8e-bc92-0e61133e8454" transform="translate(0.63 0)"><path d="M46.53,108.42H25.61a4,4,0,0,0-3.84,2.71L.19,177.33a3.91,3.91,0,0,0,3.85,5H46.53Z" style="fill:none"/></clipPath><linearGradient id="b606c55d-c174-4ef0-9234-8c1472e1c562" x1="-224.63" y1="-903.87" x2="-223.63" y2="-903.87" gradientTransform="translate(-10404.2 -41909.7) rotate(180) scale(46.53)" xlink:href="#a21989b4-d01d-4eb4-b0f4-91c4d1b71520"/><linearGradient id="fe3558fb-49f7-43bc-b0f0-a276b7c823b9" x1="-239.82" y1="-903.12" x2="-238.82" y2="-903.12" gradientTransform="matrix(-118.26, 0, 0, 118.26, -28221.17, 106848.71)" xlink:href="#a21989b4-d01d-4eb4-b0f4-91c4d1b71520"/><linearGradient id="f2ace8db-daa0-48e4-924e-c24e4f5dbfcc" x1="-239.82" y1="-903.12" x2="-238.82" y2="-903.12" gradientTransform="matrix(-118.26, 0, 0, 118.26, -28221.17, 106939.94)" xlink:href="#a21989b4-d01d-4eb4-b0f4-91c4d1b71520"/></defs><g id="bdb85dbf-7a82-4d8e-b2ac-2bfe935e2e1f" data-name="Layer 2"><g id="f50bef7a-f734-4e38-856d-ce90bde2996c" data-name="Layer 2"><g style="clip-path:url(#ab8676da-030f-44a4-8d5d-784861764368)"><rect width="47.16" height="73.97" style="fill:url(#a21989b4-d01d-4eb4-b0f4-91c4d1b71520)"/></g><g style="clip-path:url(#bdb5e878-6243-4f8e-bc92-0e61133e8454)"><rect y="108.42" width="47.16" height="73.97" style="fill:url(#b606c55d-c174-4ef0-9234-8c1472e1c562)"/></g><path d="M139.92,91.24h0L76.2,1.72A4.1,4.1,0,0,0,72.86,0H21.66L83.27,91.24Z" transform="translate(0.63 0)" style="fill:url(#fe3558fb-49f7-43bc-b0f0-a276b7c823b9)"/><path d="M21.66,182.47H72.84a4.16,4.16,0,0,0,3.38-1.74l63.7-89.49H83.27Z" transform="translate(0.63 0)" style="fill:url(#f2ace8db-daa0-48e4-924e-c24e4f5dbfcc)"/><path d="M197.66,114.1a2.55,2.55,0,0,1-2.43-1.75l-3.1-9.29H174.36l-3.54,9.39a2.56,2.56,0,0,1-2.39,1.65h-5.35a2.56,2.56,0,0,1-2.38-3.47L179.44,62a2.57,2.57,0,0,1,2.39-1.63h4.65a2.55,2.55,0,0,1,2.41,1.71l16.94,48.59a2.55,2.55,0,0,1-2.41,3.4Zm-8.75-20.87L183.8,77.77,178,93.23Z" transform="translate(0.63 0)"/><path d="M197.65,113.28a1.73,1.73,0,0,1-1.64-1.19l-3.29-9.85H173.79l-3.74,9.92a1.73,1.73,0,0,1-1.62,1.12h-5.35a1.75,1.75,0,0,1-1.43-.75,1.77,1.77,0,0,1-.19-1.61l18.75-48.59a1.73,1.73,0,0,1,1.62-1.11h4.65a1.73,1.73,0,0,1,1.64,1.16L205.06,111a1.75,1.75,0,0,1-.23,1.58,1.72,1.72,0,0,1-1.41.73Zm-7.6-19.23-6.2-18.75-7,18.75Z" transform="translate(0.63 0)"/><path d="M224.88,114.11c-11.39,0-19.65-8.2-19.65-19.5A19.08,19.08,0,0,1,224.74,75.1a18.86,18.86,0,0,1,9.33,2.52,1.73,1.73,0,0,1,.72,2.2l-1.73,4a1.77,1.77,0,0,1-1.1,1,2.07,2.07,0,0,1-.49.07,1.74,1.74,0,0,1-1-.29,12.11,12.11,0,0,0-6.12-1.65c-7.11,0-10.83,5.9-10.83,11.73,0,7,4.41,11.73,11,11.73a12.77,12.77,0,0,0,6.11-1.87,1.69,1.69,0,0,1,1-.35l.29,0a1.76,1.76,0,0,1,1.15.74l2.43,3.61a1.75,1.75,0,0,1-.47,2.41,17.53,17.53,0,0,1-10.2,3.21" transform="translate(0.63 0)" style="stroke:#474a67;stroke-miterlimit:10"/><path d="M257,114.93c-11.86,0-20.47-8.55-20.47-20.32a20.12,20.12,0,0,1,30.07-17.7,2.54,2.54,0,0,1,1.07,3.24l-1.73,4a2.61,2.61,0,0,1-1.62,1.43,3,3,0,0,1-.72.1,2.55,2.55,0,0,1-1.42-.43,11.43,11.43,0,0,0-5.66-1.51c-6.58,0-10,5.48-10,10.91,0,6.52,4.07,10.91,10.14,10.91a11.91,11.91,0,0,0,5.62-1.71,2.58,2.58,0,0,1,1.53-.51,3,3,0,0,1,.42,0,2.59,2.59,0,0,1,1.7,1.09l2.43,3.61a2.56,2.56,0,0,1-.68,3.55A18.29,18.29,0,0,1,257,114.93" transform="translate(0.63 0)"/><path d="M257,114.11c-11.38,0-19.64-8.2-19.64-19.5a19.07,19.07,0,0,1,19.5-19.51,18.83,18.83,0,0,1,9.33,2.52,1.73,1.73,0,0,1,.73,2.2l-1.73,4a1.76,1.76,0,0,1-1.11,1,2,2,0,0,1-.48.07,1.78,1.78,0,0,1-1-.29,12.08,12.08,0,0,0-6.12-1.65c-7.1,0-10.82,5.9-10.82,11.73,0,7,4.4,11.73,11,11.73a12.7,12.7,0,0,0,6.11-1.87,1.72,1.72,0,0,1,1-.35l.29,0a1.74,1.74,0,0,1,1.15.74l2.43,3.61a1.73,1.73,0,0,1-.46,2.41A17.54,17.54,0,0,1,257,114.11" transform="translate(0.63 0)"/><path d="M288.4,114.93c-11.78,0-19.7-8.25-19.7-20.53,0-11.28,8.41-20.12,19.15-20.12,9.71,0,17.62,8.25,17.62,18.38a31.76,31.76,0,0,1-.23,3.41,2.54,2.54,0,0,1-2.54,2.27H279c1.05,3.77,3.89,7.46,9.07,7.46,4.35,0,6.81-1.3,8.5-4.48a2.53,2.53,0,0,1,1.61-1.27,2.37,2.37,0,0,1,.65-.09,2.65,2.65,0,0,1,1.39.41l3.33,2.16a2.56,2.56,0,0,1,.86,3.35c-3.34,6.25-10.44,9.05-16,9.05m6.79-25.73c-1.17-3.4-4.12-5.78-7.34-5.78a8.7,8.7,0,0,0-8.42,5.78Z" transform="translate(0.63 0)"/><path d="M288.4,114.11c-11.29,0-18.88-7.92-18.88-19.71,0-10.82,8.05-19.3,18.33-19.3,9.26,0,16.8,7.88,16.8,17.56,0,1.17-.14,2.58-.22,3.32a1.73,1.73,0,0,1-1.73,1.54H278c.93,4.67,4.25,9.1,10.11,9.1,4.64,0,7.4-1.47,9.22-4.91a1.75,1.75,0,0,1,1.1-.87,1.61,1.61,0,0,1,.44-.06,1.75,1.75,0,0,1,.94.28l3.33,2.15a1.74,1.74,0,0,1,.59,2.28c-3.18,6-10,8.62-15.28,8.62M296.28,90c-1-4.23-4.45-7.42-8.43-7.42-4.65,0-8.18,2.79-9.57,7.42Z" transform="translate(0.63 0)"/><path d="M320.41,114.93A16.73,16.73,0,0,1,308,109.52a2.57,2.57,0,0,1,0-3.49l2.85-3a2.54,2.54,0,0,1,1.85-.8,2.6,2.6,0,0,1,1.86.81,7.88,7.88,0,0,0,5.91,2.73s4.52,0,4.52-3.06c0-1.9-1.72-2.79-5.66-4.37l-.17-.07c-4.31-1.75-10.83-4.4-10.83-12.36,0-6.86,5.39-11.65,13.11-11.65a16.89,16.89,0,0,1,10.92,3.83,2.58,2.58,0,0,1,.38,3.59l-2.57,3.19a2.56,2.56,0,0,1-3.57.42,8.82,8.82,0,0,0-5.3-1.89c-1.11,0-3.41.51-3.41,2.09s1.84,2.65,5.76,4.24l1.34.55c2.95,1.23,9.84,4.1,9.84,12.5,0,7.49-7.53,12.13-14.5,12.13" transform="translate(0.63 0)"/><path d="M320.41,114.11A15.93,15.93,0,0,1,308.64,109a1.75,1.75,0,0,1,0-2.37l2.85-3a1.75,1.75,0,0,1,1.26-.53h0a1.71,1.71,0,0,1,1.26.55,8.72,8.72,0,0,0,6.51,3c1.85,0,5.34-.82,5.34-3.89,0-2.53-2.34-3.6-6.17-5.13l-.17-.06c-4.35-1.78-10.32-4.2-10.32-11.61,0-6.38,5.06-10.83,12.29-10.83a16.05,16.05,0,0,1,10.4,3.65,1.75,1.75,0,0,1,.26,2.44l-2.57,3.19a1.76,1.76,0,0,1-1.36.65,1.71,1.71,0,0,1-1.06-.37,9.69,9.69,0,0,0-5.81-2.06c-1.63,0-4.23.79-4.23,2.91,0,2.33,2.38,3.42,6.27,5l1.34.55c3,1.26,9.33,3.89,9.33,11.74,0,7-7.1,11.31-13.68,11.31" transform="translate(0.63 0)"/><path d="M350.82,114.93a16.73,16.73,0,0,1-12.37-5.41,2.57,2.57,0,0,1,0-3.49l2.85-3a2.54,2.54,0,0,1,1.85-.8,2.6,2.6,0,0,1,1.86.81,7.88,7.88,0,0,0,5.91,2.73s4.52,0,4.52-3.06c0-1.91-1.72-2.79-5.66-4.37l-.17-.07c-4.31-1.75-10.83-4.4-10.83-12.36,0-6.86,5.4-11.65,13.11-11.65a16.89,16.89,0,0,1,10.92,3.83,2.58,2.58,0,0,1,.38,3.59l-2.57,3.19a2.56,2.56,0,0,1-3.57.42,8.82,8.82,0,0,0-5.3-1.89c-1.11,0-3.41.51-3.41,2.09s1.84,2.65,5.76,4.24l1.34.55c2.95,1.23,9.84,4.1,9.84,12.5,0,7.49-7.53,12.13-14.5,12.13" transform="translate(0.63 0)"/><path d="M350.82,114.11A15.93,15.93,0,0,1,339.05,109a1.74,1.74,0,0,1,0-2.37l2.85-3a1.75,1.75,0,0,1,1.26-.53h0a1.71,1.71,0,0,1,1.26.55,8.72,8.72,0,0,0,6.51,3c1.85,0,5.34-.82,5.34-3.89,0-2.53-2.34-3.6-6.17-5.13l-.17-.06c-4.35-1.78-10.32-4.2-10.32-11.61,0-6.38,5.06-10.83,12.29-10.83a16.05,16.05,0,0,1,10.4,3.65,1.75,1.75,0,0,1,.26,2.44L360,84.38a1.76,1.76,0,0,1-1.36.65,1.71,1.71,0,0,1-1.06-.37,9.69,9.69,0,0,0-5.81-2.06c-1.63,0-4.23.79-4.23,2.91,0,2.33,2.38,3.42,6.27,5l1.34.55c3,1.26,9.33,3.89,9.33,11.74,0,7-7.1,11.31-13.68,11.31" transform="translate(0.63 0)"/><path d="M405.28,113.84a2.56,2.56,0,0,1-2.43-1.74l-3.09-9.29H382l-3.54,9.38a2.58,2.58,0,0,1-2.39,1.65h-5.35a2.56,2.56,0,0,1-2.39-3.47l18.75-48.6a2.56,2.56,0,0,1,2.38-1.63h4.65a2.57,2.57,0,0,1,2.42,1.71l16.94,48.6a2.55,2.55,0,0,1-2.42,3.39ZM396.54,93l-5.12-15.47L385.64,93Z" transform="translate(0.63 0)"/><path d="M418.41,131.2a2.56,2.56,0,0,1-2.56-2.56V77.41a2.56,2.56,0,0,1,2.56-2.55h4.72a2.55,2.55,0,0,1,2.32,1.49A16.9,16.9,0,0,1,434,74a19.84,19.84,0,0,1,19.92,20.19,20.26,20.26,0,0,1-20,20.47,19.08,19.08,0,0,1-8.28-1.94v15.9a2.56,2.56,0,0,1-2.55,2.56Zm7.27-29.65a11.8,11.8,0,0,0,8.21,3.71c5.65,0,10.07-4.73,10.07-10.77,0-6.2-4.42-11-10.07-11a10,10,0,0,0-8.21,4.47Z" transform="translate(0.63 0)"/><path d="M460.9,131.2a2.56,2.56,0,0,1-2.56-2.56V77.41a2.56,2.56,0,0,1,2.56-2.55h4.72A2.57,2.57,0,0,1,468,76.35,16.88,16.88,0,0,1,476.52,74a19.84,19.84,0,0,1,19.91,20.19,20.25,20.25,0,0,1-20,20.47,19,19,0,0,1-8.27-1.94v15.9a2.56,2.56,0,0,1-2.56,2.56Zm7.28-29.65a11.78,11.78,0,0,0,8.2,3.71c5.65,0,10.08-4.73,10.08-10.77,0-6.2-4.43-11-10.08-11a10,10,0,0,0-8.2,4.47Z" transform="translate(0.63 0)"/><path d="M355.54,175.43a1.09,1.09,0,0,1-.32-.8V144.05a1.21,1.21,0,0,1,.3-.85,1.06,1.06,0,0,1,.82-.33h12.59q5.64,0,8.88,2.66t3.24,7.77c0,3.42-1.07,6-3.22,7.73s-5.11,2.61-8.9,2.61h-7v11a1.15,1.15,0,0,1-.3.8,1.08,1.08,0,0,1-.82.33h-4.47A1.09,1.09,0,0,1,355.54,175.43Zm13.16-17a6.12,6.12,0,0,0,4.18-1.29,4.85,4.85,0,0,0,1.45-3.83,5.17,5.17,0,0,0-1.4-3.83,5.82,5.82,0,0,0-4.23-1.38h-6.86v10.33Z" transform="translate(0.63 0)" style="stroke:#000;stroke-miterlimit:10"/><path d="M386,175.43a1.13,1.13,0,0,1-.32-.8v-31.1a1.09,1.09,0,0,1,.32-.82,1.16,1.16,0,0,1,.8-.31h3.9a1.11,1.11,0,0,1,.82.31,1.09,1.09,0,0,1,.31.82v31.1a1.12,1.12,0,0,1-.31.8,1,1,0,0,1-.82.33h-3.9A1.09,1.09,0,0,1,386,175.43Z" transform="translate(0.63 0)" style="stroke:#000;stroke-miterlimit:10"/><path d="M400.76,175.26a8,8,0,0,1-3.15-2.6,6.39,6.39,0,0,1,1.43-8.79,15.62,15.62,0,0,1,7.1-2.68l6.43-.93v-1a4.2,4.2,0,0,0-1-3.1,4.58,4.58,0,0,0-3.34-1,4.78,4.78,0,0,0-2.51.59,8.67,8.67,0,0,0-1.53,1.15c-.37.41-.62.68-.75.8a.7.7,0,0,1-.7.56h-3.62a1,1,0,0,1-.73-.28,1,1,0,0,1-.3-.75,5.07,5.07,0,0,1,1.15-2.68,8.67,8.67,0,0,1,3.4-2.58,13.26,13.26,0,0,1,5.64-1.08q5.55,0,8.08,2.49a8.75,8.75,0,0,1,2.54,6.53v14.75a1.12,1.12,0,0,1-.31.8,1,1,0,0,1-.82.33h-3.8a1.08,1.08,0,0,1-.8-.33,1.09,1.09,0,0,1-.33-.8V172.8a7.66,7.66,0,0,1-2.94,2.46,10.28,10.28,0,0,1-4.72,1A9.85,9.85,0,0,1,400.76,175.26ZM411,170.07a6.81,6.81,0,0,0,1.64-4.93v-1l-4.7.76a10.22,10.22,0,0,0-4.11,1.36,2.72,2.72,0,0,0-1.38,2.3,2.69,2.69,0,0,0,1.26,2.35,5.44,5.44,0,0,0,3.06.84A5.64,5.64,0,0,0,411,170.07Z" transform="translate(0.63 0)" style="stroke:#000;stroke-miterlimit:10"/><path d="M427.21,173.36a10.9,10.9,0,0,1-3.27-7.94l-.05-1.88.05-1.88a10.91,10.91,0,0,1,3.27-7.94,11.65,11.65,0,0,1,8.24-2.86,13.62,13.62,0,0,1,6.23,1.31,9.74,9.74,0,0,1,3.8,3.22,7.39,7.39,0,0,1,1.34,3.6.92.92,0,0,1-.31.8,1.19,1.19,0,0,1-.82.32h-4.13a1.11,1.11,0,0,1-.73-.21,1.92,1.92,0,0,1-.49-.73,5.5,5.5,0,0,0-1.86-2.63,5.07,5.07,0,0,0-2.94-.79,4.75,4.75,0,0,0-3.75,1.52,7.1,7.1,0,0,0-1.46,4.63l-.05,1.74.05,1.55c.13,4.1,1.86,6.15,5.21,6.15a4.94,4.94,0,0,0,3-.8,5.5,5.5,0,0,0,1.84-2.63,2,2,0,0,1,.49-.73,1.11,1.11,0,0,1,.73-.21h4.13a1.16,1.16,0,0,1,.82.33.92.92,0,0,1,.31.8,7.23,7.23,0,0,1-1.32,3.52,9.78,9.78,0,0,1-3.75,3.24,13.19,13.19,0,0,1-6.3,1.37A11.61,11.61,0,0,1,427.21,173.36Z" transform="translate(0.63 0)" style="stroke:#000;stroke-miterlimit:10"/><path d="M453.94,173.2c-2.06-2-3.14-4.86-3.27-8.53l-.05-1.17.05-1.18a12.14,12.14,0,0,1,3.31-8.41,11.21,11.21,0,0,1,8.25-3q5.53,0,8.57,3.38a13,13,0,0,1,3,9v1a1.09,1.09,0,0,1-.33.8,1.14,1.14,0,0,1-.84.33h-15.6v.37a7.47,7.47,0,0,0,1.43,4.35,4.39,4.39,0,0,0,3.69,1.76,5.37,5.37,0,0,0,4.46-2.16,2.63,2.63,0,0,1,.68-.66,1.75,1.75,0,0,1,.78-.14h4a1.12,1.12,0,0,1,.73.26.8.8,0,0,1,.3.63,4.35,4.35,0,0,1-1.34,2.66A11.2,11.2,0,0,1,468,175.1a13.93,13.93,0,0,1-5.78,1.13A11.29,11.29,0,0,1,453.94,173.2Zm13.5-11.77v-.14a6.81,6.81,0,0,0-1.38-4.46,4.7,4.7,0,0,0-3.83-1.7,4.62,4.62,0,0,0-3.81,1.7,6.86,6.86,0,0,0-1.36,4.46v.14Z" transform="translate(0.63 0)" style="stroke:#000;stroke-miterlimit:10"/><path d="M482.14,175.17a9.18,9.18,0,0,1-3.54-2.49,4.25,4.25,0,0,1-1.15-2.47.94.94,0,0,1,.33-.75,1.11,1.11,0,0,1,.75-.28h3.71a.87.87,0,0,1,.7.33q.19.13,1,.84a5.61,5.61,0,0,0,1.88,1.18,6.57,6.57,0,0,0,2.4.42,5.86,5.86,0,0,0,3.1-.75,2.46,2.46,0,0,0,.68-3.66,4.66,4.66,0,0,0-1.95-1.11,33.53,33.53,0,0,0-4.18-1.05,12.57,12.57,0,0,1-5.9-2.59,5.92,5.92,0,0,1-1.9-4.6,6.18,6.18,0,0,1,1.13-3.55,8.1,8.1,0,0,1,3.35-2.72,12.32,12.32,0,0,1,5.34-1.06,13.59,13.59,0,0,1,5.45,1,9.63,9.63,0,0,1,3.5,2.4,4,4,0,0,1,1.19,2.46,1,1,0,0,1-.3.73,1,1,0,0,1-.73.3h-3.48a1.28,1.28,0,0,1-.79-.32,12.57,12.57,0,0,1-1-.9,5.43,5.43,0,0,0-1.64-1,5.94,5.94,0,0,0-2.21-.38,4.29,4.29,0,0,0-2.7.76,2.38,2.38,0,0,0-1,2,2.19,2.19,0,0,0,.47,1.46,4.59,4.59,0,0,0,1.83,1.08,25.89,25.89,0,0,0,4.08,1c3,.59,5.16,1.52,6.46,2.77a6.14,6.14,0,0,1,1.95,4.6,6.33,6.33,0,0,1-2.86,5.36q-2.87,2.07-8,2.07A14.78,14.78,0,0,1,482.14,175.17Z" transform="translate(0.63 0)" style="stroke:#000;stroke-miterlimit:10"/></g></g></svg>