<svg xmlns="http://www.w3.org/2000/svg" width="19.928" height="19.871" viewBox="0 0 19.928 19.871">
  <path id="_1214404" data-name="1214404" d="M19.44,13a3.147,3.147,0,0,1-.67-.12,9.44,9.44,0,0,1-1.31-.39,2,2,0,0,0-2.48,1l-.22.45a12.18,12.18,0,0,1-2.66-2,12.18,12.18,0,0,1-2-2.66L10.52,9a2,2,0,0,0,1-2.48,10.33,10.33,0,0,1-.39-1.31c-.05-.22-.09-.45-.12-.68a3,3,0,0,0-3-2.49h-3a3,3,0,0,0-3,3.41A19,19,0,0,0,18.53,21.91h.38a2.993,2.993,0,0,0,3-3.01v-3A3,3,0,0,0,19.44,13Zm.5,6a1,1,0,0,1-.34.75,1.05,1.05,0,0,1-.82.25A17,17,0,0,1,4.07,5.22a1.09,1.09,0,0,1,.25-.82,1,1,0,0,1,.75-.34h3a1,1,0,0,1,1,.79q.06.41.15.81a11.12,11.12,0,0,0,.46,1.55l-1.4.65a1,1,0,0,0-.49,1.33,14.49,14.49,0,0,0,7,7,1.059,1.059,0,0,0,1.33-.52l.62-1.4a13.69,13.69,0,0,0,1.58.46q.4.09.81.15a1,1,0,0,1,.79,1Z" transform="translate(-1.982 -2.04)" fill="#385fe2"/>
</svg>
