<svg xmlns="http://www.w3.org/2000/svg" width="21.411" height="21.463" viewBox="0 0 21.411 21.463">
  <path id="_1288233" data-name="1288233" d="M17.5,9a5.419,5.419,0,0,0-2.565.645A1,1,0,0,0,14,9H10a1,1,0,0,0-1,1V22a1,1,0,0,0,1,1h4a1,1,0,0,0,1-1V16.5a1,1,0,1,1,2,0V22a1,1,0,0,0,1,1h4a1,1,0,0,0,1-1V14.5A5.507,5.507,0,0,0,17.5,9ZM21,21H19V16.5a3,3,0,1,0-6,0V21H11V11h2v.7a1,1,0,0,0,1.781.625A3.483,3.483,0,0,1,21,14.5ZM7,9H3a1,1,0,0,0-1,1V22a1,1,0,0,0,1,1H7a1,1,0,0,0,1-1V10A1,1,0,0,0,7,9ZM6,21H4V11H6ZM5.015,1.542A3.233,3.233,0,1,0,4.958,8h.028a3.233,3.233,0,1,0,.028-6.457ZM4.986,6H4.958A1.222,1.222,0,0,1,3.589,4.771c0-.746.56-1.229,1.426-1.229a1.234,1.234,0,0,1,1.4,1.229C6.411,5.517,5.852,6,4.986,6Z" transform="translate(-1.589 -1.536)" fill="#385fe2"/>
</svg>
