<svg xmlns="http://www.w3.org/2000/svg" width="22.007" height="18.721" viewBox="0 0 22.007 18.721">
  <path id="_1306065" data-name="1306065" d="M22.991,3.95a1,1,0,0,0-1.511-.859,7.48,7.48,0,0,1-1.873.793,5.152,5.152,0,0,0-3.374-1.242A5.232,5.232,0,0,0,11.01,7.705,11.032,11.032,0,0,1,4.2,3.781a1.012,1.012,0,0,0-.857-.365,1,1,0,0,0-.785.5,5.276,5.276,0,0,0-.242,4.769l0,0a1.041,1.041,0,0,0-.5.889,3.042,3.042,0,0,0,.026.439,5.185,5.185,0,0,0,1.568,3.313,1,1,0,0,0-.066.77,5.2,5.2,0,0,0,2.362,2.922,7.465,7.465,0,0,1-3.59.448A1,1,0,0,0,1.45,19.3a12.943,12.943,0,0,0,7.01,2.062A12.788,12.788,0,0,0,20.925,12a12.822,12.822,0,0,0,.535-3.646c0-.065,0-.133,0-.2a5.77,5.77,0,0,0,1.532-4.2ZM19.685,7.162a1,1,0,0,0-.233.7c.01.165.009.331.009.487a10.824,10.824,0,0,1-.454,3.081A10.685,10.685,0,0,1,8.46,19.361a10.938,10.938,0,0,1-2.551-.3A9.479,9.479,0,0,0,8.852,17.5a1,1,0,0,0-.6-1.786,3.208,3.208,0,0,1-2.214-.935q.224-.042.445-.105a1,1,0,0,0-.08-1.943A3.2,3.2,0,0,1,4.151,11a5.3,5.3,0,0,0,.545.046,1.021,1.021,0,0,0,.983-.7,1,1,0,0,0-.4-1.137A3.2,3.2,0,0,1,3.855,6.542c0-.066,0-.133.006-.2A13.014,13.014,0,0,0,12.07,9.823a1.02,1.02,0,0,0,.817-.358,1,1,0,0,0,.206-.868,3.157,3.157,0,0,1-.087-.729,3.23,3.23,0,0,1,3.227-3.227,3.184,3.184,0,0,1,2.345,1.021.993.993,0,0,0,.921.3,9.271,9.271,0,0,0,1.212-.322A6.681,6.681,0,0,1,19.685,7.162Z" transform="translate(-0.991 -2.642)" fill="#385fe2"/>
</svg>
