<svg xmlns="http://www.w3.org/2000/svg" xmlns:xlink="http://www.w3.org/1999/xlink" viewBox="0 0 182.47 139.92"><defs><style>.cls-1{fill:url(#linear-gradient);}.cls-2{fill:url(#linear-gradient-2);}.cls-3{fill:url(#linear-gradient-3);}</style><linearGradient id="linear-gradient" x1="36.98" y1="93.39" x2="36.98" y2="139.92" gradientUnits="userSpaceOnUse"><stop offset="0" stop-color="#335cea"/><stop offset="1" stop-color="#00d29b"/></linearGradient><linearGradient id="linear-gradient-2" x1="392.43" y1="93.39" x2="392.43" y2="139.92" gradientTransform="matrix(-1, 0, 0, 1, 537.83, 0)" xlink:href="#linear-gradient"/><linearGradient id="linear-gradient-3" x1="91.24" y1="0" x2="91.24" y2="118.26" xlink:href="#linear-gradient"/></defs><g id="Layer_2" data-name="Layer 2"><g id="Layer_2-2" data-name="Layer 2"><path class="cls-1" d="M71.25,118.15,5.05,139.73a3.91,3.91,0,0,1-5-3.84V93.39H74v20.92A4,4,0,0,1,71.25,118.15Z"/><path class="cls-2" d="M111.13,118.15l66.2,21.58a3.91,3.91,0,0,0,5-3.84V93.39h-74v20.92A4,4,0,0,0,111.13,118.15Z"/><path class="cls-3" d="M180.73,63.71,91.24,0,1.72,63.72A4.1,4.1,0,0,0,0,67.06v51.2L91.24,56.65l91.23,61.61V67.08A4.13,4.13,0,0,0,180.73,63.71Z"/></g></g></svg>