<svg xmlns="http://www.w3.org/2000/svg" xmlns:xlink="http://www.w3.org/1999/xlink" viewBox="0 0 511 511"><defs><clipPath id="e060e364-5370-49fa-8c67-2d6a682f48e7"><path d="M226.94,97.57H153.38a6.78,6.78,0,0,0-6.66,8.74L184.08,220.9a7,7,0,0,0,6.66,4.71h36.2Z" style="fill:none"/></clipPath><linearGradient id="adac7287-9654-4ee9-b540-86399bdf9e44" x1="-203.76" y1="-1386.39" x2="-202.03" y2="-1386.39" gradientTransform="matrix(-46.53, 0, 0, 46.53, -9253.73, 64667.5)" gradientUnits="userSpaceOnUse"><stop offset="0" stop-color="#335cea"/><stop offset="1" stop-color="#00d29b"/></linearGradient><clipPath id="a0fa202d-f025-48dc-a867-fb7d6858e582"><path d="M226.94,285.24h-36.2a7,7,0,0,0-6.66,4.7l-37.36,114.6a6.78,6.78,0,0,0,6.66,8.74h73.56Z" style="fill:none"/></clipPath><linearGradient id="ba1cfaed-a3ae-4e90-be2a-65ef856155fe" x1="-203.76" y1="-1386.65" x2="-202.03" y2="-1386.65" gradientTransform="translate(-9253.73 -64168.7) rotate(180) scale(46.53)" xlink:href="#adac7287-9654-4ee9-b540-86399bdf9e44"/><clipPath id="beeb089c-9964-4fb5-ab87-2b329941e4a7"><path d="M278.31,100.55a7.11,7.11,0,0,0-5.78-3H183.89L290.54,255.5,183.89,413.43h88.59a7.18,7.18,0,0,0,5.85-3L388.6,255.5Z" style="fill:none"/></clipPath><linearGradient id="f58297e1-894b-40f1-84c4-6c430d9eed31" x1="-233.84" y1="-1385.62" x2="-232.11" y2="-1385.62" gradientTransform="matrix(-118.26, 0, 0, 118.26, -27265.02, 164119.26)" xlink:href="#adac7287-9654-4ee9-b540-86399bdf9e44"/></defs><g id="fbe52cf1-906c-4b07-bc11-d07b973dc3f4" data-name="Layer 2"><g id="f09d9430-9ec4-4ad8-b058-a2ff22e53739" data-name="Layer 3"><rect width="511" height="511" transform="translate(511 0) rotate(90)" style="fill:#fff"/><g style="clip-path:url(#e060e364-5370-49fa-8c67-2d6a682f48e7)"><rect x="145.31" y="97.57" width="81.63" height="128.04" style="fill:url(#adac7287-9654-4ee9-b540-86399bdf9e44)"/></g><g style="clip-path:url(#a0fa202d-f025-48dc-a867-fb7d6858e582)"><rect x="145.31" y="285.24" width="81.63" height="128.04" style="fill:url(#ba1cfaed-a3ae-4e90-be2a-65ef856155fe)"/></g><g style="clip-path:url(#beeb089c-9964-4fb5-ab87-2b329941e4a7)"><rect x="183.89" y="97.57" width="204.71" height="315.86" style="fill:url(#f58297e1-894b-40f1-84c4-6c430d9eed31)"/></g></g></g></svg>